<svg width="87" height="44" viewBox="0 0 87 44" fill="none" xmlns="http://www.w3.org/2000/svg">
<g clip-path="url(#clip0_3632_3288)">
<path d="M62.598 5.29602C50.1883 11.2444 37.0413 9.46492 23.436 2.92188C36.8424 12.3923 49.8964 13.1851 62.598 5.29602Z" fill="#75E4F2"/>
<path d="M27.5762 31.5584C41.3458 25.5621 57.1066 26.013 75.4207 34.8975C59.1302 28.398 43.1532 26.8516 27.5762 31.5584Z" fill="#75E4F2"/>
<path d="M42.329 14.6865L41.9702 14.6582L41.2783 25.1371L41.6804 25.1153C42.4112 25.0761 43.6803 25.0478 44.3656 25.0325L44.8067 25.0238L44.958 14.9V14.8477L44.6121 14.8346C43.8662 14.8041 43.3927 14.7715 42.3269 14.6865H42.329Z" fill="white"/>
<path d="M86.9999 27.3292L86.2216 26.8391L86.0227 27.0155C85.3265 27.632 84.5849 28.2048 83.8174 28.721C83.411 28.9933 82.9786 29.2329 82.5354 29.4398L82.2803 29.1392C81.7441 28.4727 80.4015 26.7455 79.5281 25.0792C78.659 23.4652 77.8677 21.7859 77.1759 20.0848C77.5261 20.161 78.0688 20.3244 78.0925 20.3331L79.0568 20.6271L78.7584 19.6557C78.4493 18.6603 78.2136 17.6366 78.0579 16.6085C77.9066 15.4977 77.8677 14.3673 77.9455 13.2499L77.9671 12.9537L77.0613 12.7141L76.9316 12.9711C76.6592 13.5091 76.3046 13.9948 75.8765 14.4152C75.7446 14.5459 75.6041 14.6722 75.4614 14.7942C75.282 13.814 75.0031 12.2763 74.6701 10.3574C75.1436 9.83244 76.2376 8.57785 76.5835 7.82858C76.6678 7.64562 76.75 7.47355 76.8343 7.29058L76.8797 7.19693C77.6083 5.65047 78.1336 4.53092 78.726 1.64274L79.0633 -0.00390625L75.3533 3.45058C74.3372 4.46122 71.2585 6.7613 71.2283 6.78308L71.0877 6.88981V7.06624C71.025 11.0152 71.4034 14.9793 72.212 18.8433C73.3535 24.2777 76.5402 30.0453 77.4894 31.6832L77.552 31.7921L77.6688 31.8379C78.6871 32.2343 79.5475 32.5676 80.2913 32.8551L80.3107 32.8616C83.1429 33.9572 84.2023 34.3667 85.5124 35.0201L86.0681 35.2967L86.0248 34.6738C85.8994 32.8311 85.8519 30.091 86.8831 27.608L86.9999 27.327V27.3292Z" fill="white"/>
<path d="M60.6951 19.5294L60.6886 19.4836C60.613 19.0698 60.5416 18.6429 60.4811 18.2116C59.999 14.853 60.9913 13.5287 61.1102 13.3849L61.2335 13.2063L61.1643 12.2109L60.4768 12.4418C59.7849 12.6749 58.8402 12.9951 57.3073 13.4241L57.0176 13.5047L57.0479 13.8053C57.2165 15.5217 57.4435 17.5451 57.8608 19.5381C58.0597 20.4551 58.3083 21.3721 58.6002 22.2651C57.6878 22.0386 56.7084 21.9253 56.2869 21.8817C56.0447 21.1172 55.8307 20.3157 55.6534 19.5011C55.1021 16.9592 54.8124 14.4457 54.8102 14.4195L54.767 14.034L54.3886 14.1081C53.7141 14.2388 53.1217 14.3193 52.3002 14.4304L51.6948 14.5132L51.7359 14.8639C51.937 16.6151 52.3369 18.6189 52.6223 19.9737C53.1001 22.1061 53.6082 23.7876 54.22 25.2665L54.2978 25.456L54.4989 25.4843C57.3095 25.8786 59.9817 26.3926 62.669 27.0569L63.3349 27.2203L62.9911 26.3273C62.2474 24.6632 61.2464 22.1301 60.6951 19.525V19.5294Z" fill="white"/>
<path d="M67.4906 9.25586L67.2463 9.38655C67.1576 9.43446 67.0733 9.4802 66.9868 9.52812L66.9695 9.53901C66.3534 9.87662 65.5859 10.297 62.4553 11.7041L62.2305 11.8042L62.2434 12.0504C62.2456 12.0939 62.678 16.5242 63.225 19.3492C63.5968 21.279 64.5719 23.9777 66.3771 27.8395L66.4787 28.0529L68.457 28.6541L68.5759 28.3514C71.7583 20.2466 72.5582 14.834 67.6765 9.4606L67.4906 9.25586ZM66.1393 18.3473C65.7977 16.4001 65.4713 14.4703 65.3199 13.5206C65.8453 13.2527 66.4204 12.939 66.8809 12.669C67.497 14.039 67.8905 15.2827 67.8278 16.8596C67.7565 18.6697 67.3003 19.909 66.816 21.218L66.7944 21.2747C66.5306 20.3098 66.3101 19.3253 66.1393 18.3451V18.3473Z" fill="white"/>
<path d="M40.9715 14.5385C38.0767 14.0332 37.173 13.8241 35.6639 13.4364L35.2683 13.334L34.9202 16.3724L37.1146 16.6708L37.0995 16.7536C37.08 16.8603 37.0584 16.9823 37.0346 17.1174C36.8854 17.9254 36.6584 19.0689 36.4141 19.9445C35.9947 21.4431 34.9786 25.2962 34.9699 25.3288L34.8315 25.8559L35.3656 25.7775C35.9687 25.6882 37.0086 25.4987 37.614 25.4421L37.8432 25.4203L37.9188 25.2025C37.9361 25.1524 39.1663 20.158 39.8408 17.1086L39.856 17.0477C40.0851 17.0782 40.3143 17.1043 40.5435 17.1304L41.0429 17.1849L41.2958 14.5973L40.9694 14.5407L40.9715 14.5385Z" fill="white"/>
<path d="M51.1417 14.5859L50.7958 14.6273C49.3256 14.7994 47.7214 14.88 46.0329 14.8647H45.6719L45.6848 17.4567L46.0308 17.4676C46.3486 17.4763 46.6685 17.4828 47.008 17.485C47.209 19.3887 47.7387 22.1178 48.4327 24.7969L48.4997 25.0561L48.7657 25.0648C49.3062 25.0844 49.8856 25.1193 50.5363 25.1716L51.0141 25.2108L50.9147 24.7381C50.8866 24.6052 50.2228 21.4622 50.0434 20.1663C49.9245 19.2623 49.838 18.3345 49.7861 17.4088L51.5308 17.3456L51.146 14.5859H51.1417Z" fill="white"/>
<path d="M35.5624 20.2366L34.7906 20.8138C34.0944 21.3344 32.8686 22.0488 31.6579 22.3864C31.9908 21.611 32.3411 20.5394 32.7 19.1999C33.7204 15.3882 33.3486 13.112 33.301 12.8637L33.2642 12.6612L33.0697 12.5915C31.8936 12.1711 30.5791 11.5917 29.1673 10.8664L28.8863 10.7227L28.3674 11.4959L28.4279 11.668C29.5284 14.8066 28.9468 21.5413 26.0908 26.9474L25.7168 27.6553L26.4886 27.4658C29.4224 26.747 30.6072 26.5227 33.4415 26.0653L33.6102 26.0391L33.6945 25.8888C33.7356 25.817 34.702 24.0919 35.3506 21.1841L35.5603 20.2388L35.5624 20.2366Z" fill="white"/>
<path d="M23.449 7.12465L23.4187 6.99614L23.3128 6.91991C23.2976 6.90902 22.9236 6.62804 22.1972 5.91798C21.3648 5.10554 20.6254 4.29528 20.6168 4.28657L20.1541 3.78125L20.005 4.45211C19.9812 4.55884 17.5922 15.1357 13.5839 20.9426C13.5363 21.0123 13.4866 21.082 13.4304 21.1626L13.4153 21.1822C13.3309 21.2998 13.2466 21.4174 13.1601 21.5307C12.6802 22.1667 12.1678 22.8158 11.636 23.4583L10.8663 24.3448C8.48812 27.0848 7.50442 28.2196 4.93816 30.4675C3.97176 31.3539 2.99671 32.2034 2.04111 32.9919C1.85734 33.1444 1.68439 33.2838 1.53089 33.4101C0.977421 33.8566 0.616372 34.131 0.486653 34.229L-0.00195312 34.5928L1.48549 35.2702L1.50278 35.2789L1.62601 35.2462C1.62601 35.2462 1.64331 35.2419 1.66061 35.2375C1.94599 35.1613 3.94149 34.6342 5.44838 34.2399C7.04176 33.8239 9.40263 33.4319 9.42642 33.4275L9.54749 33.4079L9.6318 33.3164C9.7118 33.2293 11.5992 31.1666 13.5774 28.566C15.1989 26.4336 16.4485 24.5212 17.2938 22.8789L17.2982 22.8702C17.9835 22.648 18.9802 22.3061 19.8796 21.9271C20.5627 21.6396 21.3173 21.2671 21.8534 20.9905C21.7151 25.6168 19.6028 29.4132 19.5812 29.4503L18.9002 30.6526L20.0741 29.936C21.2567 29.215 23.4641 28.3351 24.9386 27.8733L25.2802 27.7666L25.304 27.3288C25.3688 26.1025 25.6628 19.7816 25.0553 15.8654C24.1776 10.211 23.4749 7.24662 23.4447 7.12465H23.449ZM21.8189 17.5404C20.9627 18.233 20.0525 18.9104 19.1185 19.5508C18.7813 19.7816 18.444 20.006 18.0851 20.2347C19.4645 17.279 20.5455 14.6152 21.1076 13.182C21.4016 14.6239 21.6394 16.0876 21.8189 17.5404Z" fill="white"/>
<path d="M8.71715 39.1579C8.7539 39.0577 8.81876 39.0098 8.91821 39.0098H9.72247C9.81759 39.0098 9.88245 39.0577 9.92137 39.1579L11.7136 43.7798C11.7245 43.8103 11.7309 43.8321 11.7309 43.8495C11.7309 43.9018 11.6942 43.9258 11.6207 43.9258H10.6413C10.5419 43.9258 10.477 43.8778 10.4467 43.7798L10.2176 43.1329H8.42528L8.2026 43.7798C8.17233 43.8757 8.10747 43.9258 8.0037 43.9258H7.02432C6.95298 43.9258 6.91406 43.9018 6.91406 43.8495C6.91406 43.8321 6.92055 43.8125 6.93136 43.7798L8.71282 39.1579H8.71715ZM9.84354 42.0678L9.31385 40.5649L8.79714 42.0678H9.84354Z" fill="#75E4F2"/>
<path d="M14.9695 42.4796C15.0063 42.4796 15.0408 42.4992 15.0646 42.5384L15.6008 43.3356C15.6311 43.3726 15.6462 43.4053 15.6462 43.4314C15.6462 43.4684 15.6159 43.5076 15.5576 43.549C15.1338 43.8496 14.6603 43.9977 14.1436 43.9977C13.6896 43.9977 13.268 43.8844 12.881 43.6557C12.494 43.4292 12.187 43.1177 11.96 42.7279C11.7352 42.338 11.6206 41.9154 11.6206 41.4558C11.6206 40.9963 11.733 40.5737 11.96 40.1882C12.187 39.8027 12.494 39.4955 12.881 39.2712C13.268 39.0469 13.6875 38.9336 14.1436 38.9336C14.7014 38.9336 15.1835 39.1166 15.5705 39.3954C15.6116 39.4258 15.6311 39.4651 15.6311 39.5086C15.6311 39.5326 15.6246 39.5544 15.6138 39.5696L15.043 40.3929C15.0192 40.4234 14.989 40.4408 14.95 40.4408C14.9111 40.4408 14.8787 40.4278 14.8398 40.3951C14.6214 40.2187 14.416 40.1468 14.1415 40.1468C13.4302 40.1359 12.8616 40.7371 12.8724 41.4537C12.8594 42.1746 13.4345 42.7867 14.1415 42.7736C14.3706 42.7736 14.5998 42.6952 14.829 42.5362C14.883 42.4992 14.9284 42.4774 14.9652 42.4774L14.9695 42.4796Z" fill="#75E4F2"/>
<path d="M16.0244 39.1579C16.0244 39.0577 16.072 39.0098 16.1671 39.0098H19.7322C19.8273 39.0098 19.8749 39.0577 19.8749 39.1579V39.9943C19.8749 40.0945 19.8273 40.1424 19.7322 40.1424H18.5647V43.7776C18.5647 43.8735 18.5172 43.9236 18.4177 43.9236H17.4708C17.3756 43.9236 17.3281 43.8757 17.3281 43.7776V40.1424H16.1693C16.0741 40.1424 16.0266 40.0945 16.0266 39.9943V39.1579H16.0244Z" fill="#75E4F2"/>
<path d="M20.6509 39.1579C20.6509 39.0577 20.6984 39.0098 20.7936 39.0098H21.7751C21.8702 39.0098 21.9178 39.0577 21.9178 39.1579V43.7798C21.9178 43.8757 21.8702 43.9258 21.7751 43.9258H20.7936C20.6984 43.9258 20.6509 43.8778 20.6509 43.7798V39.1579Z" fill="#75E4F2"/>
<path d="M25.5414 43.7805C25.5047 43.8763 25.4355 43.9264 25.3425 43.9264H24.5685C24.4756 43.9264 24.4086 43.8785 24.3696 43.7805L22.6076 39.152C22.5968 39.1215 22.5903 39.0976 22.5903 39.0801C22.5903 39.0279 22.6271 39.0039 22.7006 39.0039L23.747 39.0104C23.8464 39.0104 23.9113 39.0584 23.9416 39.1586L24.9512 42.123L25.95 39.1586C25.9846 39.0584 26.0495 39.0104 26.1446 39.0104H27.2061C27.2775 39.0104 27.3164 39.0344 27.3164 39.0867C27.3164 39.1041 27.3099 39.1281 27.2991 39.1586L25.5414 43.7805Z" fill="#75E4F2"/>
<path d="M27.9997 39.1579C27.9997 39.0577 28.0473 39.0098 28.1424 39.0098H31.4092C31.5043 39.0098 31.5518 39.0577 31.5518 39.1579V40.0052C31.5518 40.101 31.5043 40.1511 31.4092 40.1511H29.2666V40.9679H30.8924C30.9984 40.9679 31.0524 41.0202 31.0524 41.1204V41.8021C31.0524 41.8979 30.9984 41.9459 30.8924 41.9459H29.2666V42.791H31.4697C31.5691 42.791 31.6167 42.8389 31.6167 42.9369V43.782C31.6167 43.8778 31.5691 43.9279 31.4697 43.9279H28.1402C28.0451 43.9279 27.9976 43.88 27.9976 43.782V39.1601L27.9997 39.1579Z" fill="#75E4F2"/>
<path d="M37.5708 39.1579C37.5708 39.0577 37.6184 39.0098 37.7135 39.0098H40.8397C40.9348 39.0098 40.9824 39.0577 40.9824 39.1579V40.0052C40.9824 40.101 40.9348 40.1511 40.8397 40.1511H38.8377V41.1705H40.3057C40.4008 41.1705 40.4484 41.2184 40.4484 41.3186V42.1223C40.4484 42.2181 40.4008 42.266 40.3057 42.266H38.8377V43.7798C38.8377 43.8757 38.7902 43.9258 38.695 43.9258H37.7135C37.6184 43.9258 37.5708 43.8778 37.5708 43.7798V39.1579Z" fill="#75E4F2"/>
<path d="M42.5824 39.1579C42.6191 39.0577 42.684 39.0098 42.7834 39.0098H43.5877C43.6828 39.0098 43.7477 39.0577 43.7866 39.1579L45.5789 43.7798C45.5897 43.8103 45.5962 43.8321 45.5962 43.8495C45.5962 43.9018 45.5594 43.9258 45.4859 43.9258H44.5065C44.4071 43.9258 44.3422 43.8778 44.312 43.7798L44.0828 43.1329H42.2905L42.0678 43.7798C42.0376 43.8757 41.9727 43.9258 41.8689 43.9258H40.8896C40.8182 43.9258 40.7793 43.9018 40.7793 43.8495C40.7793 43.8321 40.7858 43.8125 40.7966 43.7798L42.5781 39.1579H42.5824ZM43.7088 42.0678L43.1791 40.5649L42.6624 42.0678H43.7088Z" fill="#75E4F2"/>
<path d="M47.2803 43.7798C47.2695 43.88 47.2284 43.9258 47.1376 43.9258H46.2036C46.1042 43.9258 46.0501 43.8778 46.0609 43.7798L46.5495 39.1579C46.5603 39.0577 46.6014 39.0098 46.6922 39.0098H47.8424C47.9289 39.0098 47.9483 39.0446 47.9851 39.1579L48.8823 42.1288L49.7795 39.1579C49.8163 39.0446 49.8379 39.0098 49.9222 39.0098H51.0724C51.1654 39.0098 51.2064 39.0577 51.2151 39.1579L51.7037 43.7798C51.7145 43.8757 51.6583 43.9258 51.5588 43.9258H50.6249C50.5319 43.9258 50.4908 43.88 50.48 43.7798L50.2141 41.1857L49.4487 43.7733C49.412 43.8974 49.3839 43.9258 49.2888 43.9258H48.4737C48.3786 43.9258 48.344 43.8953 48.3137 43.7733L47.557 41.1204L47.2803 43.7798Z" fill="#75E4F2"/>
<path d="M52.6919 39.1579C52.6919 39.0577 52.7395 39.0098 52.8346 39.0098H53.8161C53.9113 39.0098 53.9588 39.0577 53.9588 39.1579V43.7798C53.9588 43.8757 53.9113 43.9258 53.8161 43.9258H52.8346C52.7395 43.9258 52.6919 43.8778 52.6919 43.7798V39.1579Z" fill="#75E4F2"/>
<path d="M55.0957 39.1579C55.0957 39.0642 55.1541 39.0098 55.2362 39.0098H56.2178C56.3129 39.0098 56.3605 39.0577 56.3605 39.1579V42.7518H58.1808C58.276 42.7518 58.3235 42.7997 58.3235 42.8955V43.7776C58.3235 43.8735 58.276 43.9236 58.1808 43.9236H55.2362C55.1433 43.9236 55.0957 43.8757 55.0957 43.7776V39.1557V39.1579Z" fill="#75E4F2"/>
<path d="M57.984 39.1579C57.9711 39.1296 57.9624 39.1056 57.9624 39.0882C57.9624 39.0359 58.0078 39.0098 58.0748 39.0098H59.2012C59.2942 39.0098 59.3417 39.0511 59.3958 39.1579L60.1698 40.8154L60.9351 39.1579C60.9892 39.0511 61.0389 39.0098 61.1297 39.0098H62.2691C62.3382 39.0098 62.3815 39.0381 62.3815 39.0882C62.3815 39.1056 62.375 39.1296 62.362 39.1579L60.8011 41.9154V43.7798C60.8011 43.8757 60.7535 43.9258 60.6562 43.9258H59.6747C59.5796 43.9258 59.532 43.8778 59.532 43.7798V41.9219L57.9819 39.1579H57.984Z" fill="#75E4F2"/>
<path d="M67.2441 39.1579C67.2441 39.0577 67.2917 39.0098 67.3868 39.0098H70.513C70.6082 39.0098 70.6557 39.0577 70.6557 39.1579V40.0052C70.6557 40.101 70.6082 40.1511 70.513 40.1511H68.5111V41.1705H69.979C70.0742 41.1705 70.1217 41.2184 70.1217 41.3186V42.1223C70.1217 42.2181 70.0742 42.266 69.979 42.266H68.5111V43.7798C68.5111 43.8757 68.4635 43.9258 68.3684 43.9258H67.3868C67.2917 43.9258 67.2441 43.8778 67.2441 43.7798V39.1579Z" fill="#75E4F2"/>
<path d="M72.7098 41.9633C72.7098 42.5906 73.073 42.8628 73.514 42.8628C73.9551 42.8628 74.3205 42.5318 74.3205 41.9633V39.1579C74.3205 39.0751 74.3788 39.0098 74.4718 39.0098H75.4295C75.529 39.0098 75.5895 39.0751 75.5895 39.1579V41.9459C75.596 43.427 74.6685 44.0042 73.514 43.9998C72.3574 44.0042 71.4299 43.4139 71.4385 41.9459V39.1579C71.4385 39.0751 71.4904 39.0098 71.5683 39.0098H72.5714C72.6817 39.0098 72.7119 39.062 72.7119 39.1579V41.9633H72.7098Z" fill="#75E4F2"/>
<path d="M77.6671 43.7798C77.6671 43.8757 77.6131 43.9258 77.5071 43.9258H76.5904C76.4953 43.9258 76.4478 43.8778 76.4478 43.7798V39.1579C76.4478 39.0751 76.4996 39.0098 76.5904 39.0098H77.6541C77.7471 39.0098 77.8249 39.0577 77.8876 39.1579L79.5329 41.8391V39.1579C79.5329 39.0751 79.5848 39.0098 79.6799 39.0098H80.5923C80.6636 39.0098 80.7522 39.0751 80.7522 39.1579V43.7798C80.7522 43.8757 80.6982 43.9258 80.5923 43.9258H79.6302C79.5307 43.9258 79.4529 43.8778 79.3945 43.7798L77.6671 40.9156V43.7798Z" fill="#75E4F2"/>
<path d="M34.529 42.8738C35.2669 42.8738 35.8651 42.2711 35.8651 41.5277C35.8651 40.7843 35.2669 40.1816 34.529 40.1816C33.7911 40.1816 33.1929 40.7843 33.1929 41.5277C33.1929 42.2711 33.7911 42.8738 34.529 42.8738Z" fill="white"/>
<path d="M64.401 42.8738C65.1389 42.8738 65.7371 42.2711 65.7371 41.5277C65.7371 40.7843 65.1389 40.1816 64.401 40.1816C63.6631 40.1816 63.0649 40.7843 63.0649 41.5277C63.0649 42.2711 63.6631 42.8738 64.401 42.8738Z" fill="white"/>
</g>
<defs>
<clipPath id="clip0_3632_3288">
<rect width="87" height="44" fill="white"/>
</clipPath>
</defs>
</svg>
