<?xml version="1.0" encoding="UTF-8"?>
<svg id="Layer_1" data-name="Layer 1" xmlns="http://www.w3.org/2000/svg" viewBox="0 0 136 53">
  <defs>
    <style>
      .cls-1 {
        fill: #231f20;
        stroke-width: 0px;
      }
    </style>
  </defs>
  <path class="cls-1" d="m120.01,6.73c-.16-2.13-1.62-2.52-2.82-2.41-.93.11-1.97.93-1.82,2.25.19,1.59,1.12,1.4,1.55,3.22.35,1.44-.35,1.79-1.12,2.88,1.55-.39,4.48-2.14,4.21-5.95m10.52,19.73c.11-7.73-9.63-6.64-9.36-11.46.08-1.71,1.39-2.64,3.17-2.64,2.4,0,3.02,1.98,3.83,3.96,0,0,.7.97,1.51.16,1.05-1.05-.04-3.34-.35-3.61-1.39-1.05-3.06-1.4-4.72-1.4-2.48,0-6.58,2.33-6.58,5.67.04,5.55,8.97,6.06,8.97,10.91,0,1.94-1.47,3.61-3.44,3.61-3.02,0-3.95-2.1-4.68-3.88,0,0-.04-.7-.78-.66-1.04.04-.73,2.29-.11,3.57.66,1.24,3.21,1.9,5.07,1.83,4.25-.19,7.39-2.25,7.47-6.06m-49.51,5.17c-3.05-.82-2.24-1.9-2.44-6.57v-6.06c0-3.42.08-6.41-5.49-6.41s-7.77,4.43-7.73,5.59c.11,1.55,2.67.15,3.02-.47.39-.7.93-4.12,3.83-4.23,2.59-.08,2.28,3.69,2.17,8.24,0,0-5.26,1.2-7.46,3.49-.81.85-1.27,1.75-1.47,2.37-.5,1.63-.35,2.68.19,3.42-2.48,1.2-2.86-.47-2.94-3.38V1.8c-.42-.78-.73,0-.73,0l-2.05,1.36-2.82,1.32v.39c2.51,1.48,1.66,1.86,1.82,3.73v19.03c-.04,3.19.5,3.69-2.51,4.16v.5c2.2-.31,5.34-.31,7.97.04.7.08,1.82-.35,2.44-.47l-.04-.04c.77.35,1.78.46,2.78.46,3.09.04,4.68-2.25,4.79-2.14.81.74,1.67,2.17,2.83,2.17h3.29l.04.04s.08-.04.11-.04h.81v-.12c1.93-.19,6.23-.23,8.59.12.04,0,0-.66,0-.66-3.37-.31-2.75-3.3-2.79-4.47l.04-8.78s-.46-2.18,2.24-2.49c1.74-.23,1.55,2.06,4.37,1.75.08,0,.16,0,.19-.04-.89,1.67-1.39,3.69-1.39,6.14-.04,4.23,3.29,8.58,7.78,8.66,3.33.04,5.06-1.05,5.65-1.24.38-.16.31,1.12.81,1.12s2.75-.39,2.75-.39l3.48.39.04-.39c-2.44-1.28-2.01-3.46-2.05-5.24V1.95c0-.77-.46-.15-.46-.15l-2.56,1.44-2.51,1.24-.08.27c2.09,1.51,1.74,1.75,1.74,3.49v5.44c-.08-.15-1.93-1.24-3.44-1.24-3.4.04-6.34,1.09-8.32,3.22,0-.31,0-.66-.08-1.09-.19-1.2-1.93-1.59-3.21-1.59-2.79,0-4.33,2.72-4.72,2.33l-.23-.39v-2.64c-.7-.74-.93-.04-.93-.04l-2.05,1.44-2.2,1.17v.43c1.39,1.24,1.24,1.4,1.24,3.26v8.74c-.04,3.22.23,3.88-2.28,4.35M43.92,5.92c0-1.32-1.08-2.37-2.36-2.37s-2.4,1.05-2.4,2.37,1.08,2.37,2.4,2.37,2.36-1.09,2.36-2.37m2.94,26.41h.12v-.04c2.71-.35,6.34-.39,9.32.04l-.04-.5c-3.02-.47-3.09-.82-3.17-4.16V1.84c-.35-.74-.73,0-.73,0l-2.05,1.36-2.82,1.32v.39c2.52,1.48,1.63,1.86,1.82,3.73v19.03c-.04,3.18.5,3.69-2.44,4.16-2.9-.47-3.02-.86-3.05-4.16v-14.6c-.31-.54-.77,0-.77,0l-2.05,1.36-2.82,1.32v.39c2.55,1.47,1.66,1.86,1.82,3.73v7.81c-.04,3.22.5,3.69-2.51,4.16v.5c2.67-.39,6.35-.43,9.32,0h.08Zm60.38-3.38c-1.04,2.06-3.36,1.79-4.95,1.56-3.02-.47-5.76-2.53-5.88-8.51-.08-4.16,2.63-8.86,6.5-8.86,1.93,0,4.33.54,4.33,5.56v10.25Zm-32.92-.08c-.73.82-1.32,1.55-2.47,1.55-1.93,0-3.21-1.01-3.01-2.8.27-2.6,4.44-5.28,5.49-4.58.04.04,0,5.83,0,5.83m-37.05-12c-.19-12.86-11.26-15.54-18.14-15.3-2.28.04-4.49.31-6.77.19-4.33-.27-5.22.08-5.8.15-.31.04-1.05,0-1.08,1.01-.04.27,1.78.31,2.67.62.93.35,1.39,1.09,1.39,3.54v20.47c0,4.23-4.18,2.76-4.02,4.51.04.51,2.4.43,2.98.27,1.2-.35,2.05-.58,3.4-.58,1.62,0,4.6.66,9.71.66,4.68,0,15.86-2.06,15.67-15.54m-5.11,1.4c-.23,7.11-5.53,13.44-11.45,13.29-1.7-.04-6.5-.86-6.58-4.31l-.04-20.98c0-3.22,1.59-3.92,4.87-3.88,9.63.04,13.35,10.8,13.19,15.88"/>
  <g>
    <path class="cls-1" d="m38.86,46.57v.07c-.12.56-.47,1.06-1.04,1.06-.33,0-.71-.13-.72-1.1v-4.23h1.78v-.29h-1.78v-1.85l-.09.07c-.16.12-.32.18-.57.18-.29,0-.35-.03-.48-.09l-.02-.03v1.72h-1v.29h1v4.11c0,.94.42,1.5,1.72,1.51h0c1.07,0,1.38-.81,1.47-1.26l-.27-.15m-7.22-4.16l-1.56-.5c-.89-.29-1.82-.65-1.82-1.74,0-1.34,1.24-1.73,2.07-1.73,1.44,0,2.18,1.13,2.39,2.37l.26.05v-2.42l-.24-.06c-.18.28-.17.26-.39.27-.45.01-.81-.51-2.02-.51-1.69,0-2.87,1.19-2.87,2.8,0,1.22.75,1.93,2.15,2.36l1.48.46c.72.22,1.69.7,1.69,1.88,0,.84-.44,2.06-2.23,2.07h-.03c-.96,0-2.46,0-3.05-2.79l-.19-.04v2.92h.19c.12-.21.15-.28.39-.29.28,0,.72.18,1.06.28.59.16.92.19,1.64.19,2.06,0,3.32-1.49,3.33-3.14,0-1.83-1.6-2.24-2.24-2.44m-10.87,1.86h-2.53c.09-1.12.38-2.07,1.48-2.07.65,0,1.07.28,1.08,1.45,0,.22,0,.37-.03.62m-1-2.36c-1.66,0-2.95,1.49-2.96,3.06,0,1.81,1.28,3.01,3.03,3.01h0c1.75,0,2.13-1.28,2.24-1.66l.02-.06-.25-.05c-.2.45-.5,1.47-1.99,1.48-1.47,0-1.65-1.41-1.65-2.58,0-.27.01-.44.01-.61h3.97c0-1.95-1.46-2.59-2.42-2.59m41.97,5.78c-.89-.01-1.64-.28-1.65-2.75,0-2.08.53-2.74,1.65-2.75,1.12,0,1.65.67,1.66,2.75,0,2.47-.77,2.73-1.66,2.75m0-5.78c-1.4,0-3.04,1.27-3.04,3.04,0,1.68,1.51,3.04,3.04,3.04,1.54,0,3.07-1.36,3.07-3.04,0-1.77-1.66-3.04-3.07-3.04m-13.51-3.59h-2.21v.29h1.05v8.89h-1.05v.29h3.2v-.29h-.99v-9.18Zm-4.38,4.05h1.04l-1.66,3.92-1.58-3.92h1.06v-.29h-3.23v.29h.91l2.18,5.57-.57,1.43c-.56,1.39-.86,1.86-1.38,1.85-.2-.01-.27-.03-.28-.22,0-.23.21-.43.22-.71,0-.42-.42-.51-.66-.51-.36,0-.67.25-.67.71,0,.32.19,1.06,1.21,1.06.84,0,1.28-.61,1.77-1.88.3-.76.58-1.53.9-2.28l2.13-5.02h.7v-.29h-2.08v.29Zm9.94,1.9h-2.53c.09-1.12.38-2.07,1.48-2.07.65,0,1.07.28,1.08,1.45,0,.22,0,.37-.03.62m-1-2.36c-1.66,0-2.95,1.49-2.95,3.06,0,1.81,1.28,3.01,3.03,3.01h0c1.76,0,2.13-1.28,2.24-1.66l.02-.06-.25-.05c-.19.45-.5,1.47-1.99,1.48-1.47,0-1.65-1.41-1.65-2.58,0-.27.01-.44.01-.61h3.97c0-1.95-1.45-2.59-2.42-2.59M.5,40.83l.14.05c.65-2.16,1.7-2.27,2.38-2.27h.75v8.89h-1.43v.29h4.15v-.29h-1.43v-8.9h.75c.68,0,1.74.12,2.33,2.24l.24.04v-2.55H.5v2.5Zm14.7,2.92c0-1.25-.77-1.81-1.92-1.81-1.38,0-1.95.94-2.17,1.44v-5.05h-2.21v.28h1.04v8.89h-.99v.29h3.15v-.29h-.99v-2.88c0-1.37.92-2.38,1.99-2.38.64,0,.92.44.93,1.11v4.16h-1v.29h3.15v-.29h-.99v-3.75Zm50.27,4.04h3.36v-.29h-1.23v-5.12h1.65v-.3h-1.65l.05-1.76c0-1.32.58-1.88,1.25-1.88.32,0,.65.09.65.43,0,.26-.24.46-.24.8,0,.41.42.47.64.47.48,0,.67-.38.67-.72,0-.51-.5-1.27-1.65-1.27-.77,0-1.49.5-1.95,1.09-.35.44-.59.99-.59,2.21v.63h-.94v.3h.94v5.12h-.97v.29Z"/>
    <path class="cls-1" d="m134.77,46.43c-.41,0-.74.34-.74.74s.33.74.74.74.73-.34.73-.74c0-.41-.33-.74-.73-.74m-2.78-1.96l-.94-.31c-.75-.24-1.11-.45-1.11-.98,0-.59.44-.97,1.24-.98.84,0,1.15.65,1.39,1.43l.19.04v-1.54l-.14-.06c-.09.08-.1.1-.21.11-.32,0-.48-.27-1.24-.27-1.09,0-1.9.76-1.91,1.77,0,1.18.79,1.46,1.32,1.64l1,.36c.43.16.8.33.8.97,0,.72-.47,1.02-1,1.02-1.26,0-1.75-.97-1.98-1.78l-.25-.04v1.88l.19.05c.1-.11.14-.18.31-.18.36,0,.86.37,1.63.37,1.33,0,2.1-.92,2.1-1.91,0-.82-.61-1.31-1.41-1.58m-6.04,1.37c0,.7-.16,1.75-1.26,1.75-.76,0-.89-.56-.9-1.09,0-.59.29-.97.82-1.19l.97-.39c.17-.07.3-.15.37-.23v1.15Zm2.22,1.53l-.05.03c-.16.12-.39.2-.55.2-.26,0-.39-.1-.4-.58v-3.24c0-.95-.53-1.85-2.14-1.85-1.33,0-2.06.69-2.06,1.5,0,.33.1.61.68.62.35,0,.56-.22.56-.48,0-.16-.08-.46-.08-.76,0-.4.36-.58.93-.59.82,0,.92.45.93,1.29-.01,1.03-.21,1.05-1.36,1.45-.94.3-2.05.43-2.05,1.7,0,.55.26,1.31,1.72,1.32,1.23,0,1.58-.65,1.73-1,.09.59.43,1,1.25,1h.02c.45,0,.77-.16,1-.34l.04-.03-.17-.23Zm-7.42-3.43c0-1.29-.59-1.99-1.88-1.99-1.06,0-1.67.59-1.92,1.22-.17-.86-.93-1.22-1.78-1.22-.95,0-1.66.48-2.02,1.47v-1.34h-2.13v.29h1.04v5.13h-1.04v.3h3.14v-.3h-1.01v-2.85c0-1.77,1.16-2.42,1.87-2.42.48,0,.82.32.82,1.06v4.2h-1.03v.3h3.2v-.3h-1.08v-3.28c0-1.38,1.01-1.99,1.84-1.99.53,0,.9.32.91.88v4.39h-1.01v.3h3.14v-.3h-1.04v-3.57Zm-10.49,2.62v.06c-.12.56-.47,1.05-1.04,1.05-.32,0-.71-.13-.72-1.09v-4.21h1.77v-.3h-1.77v-1.83l-.09.07c-.16.13-.33.19-.57.19-.29,0-.35-.03-.49-.09l-.07-.02v1.69h-.99v.3h.99v4.09c0,.93.47,1.5,1.78,1.5h0c1.07,0,1.38-.81,1.46-1.26l-.27-.15Zm-5.99-2.09l-.94-.31c-.75-.24-1.12-.45-1.12-.98,0-.59.44-.97,1.25-.98.84,0,1.14.65,1.39,1.43l.25.04v-1.54l-.2-.06c-.08.08-.1.1-.2.11-.33,0-.48-.27-1.24-.27-1.09,0-1.91.77-1.91,1.77,0,1.18.79,1.46,1.32,1.64l1,.36c.44.16.8.33.8.96,0,.72-.47,1.02-1,1.03-1.27,0-1.75-.97-1.99-1.78l-.25-.04v1.88l.2.05c.1-.11.14-.18.31-.18.36,0,.86.36,1.64.37,1.33,0,2.1-.93,2.1-1.9,0-.83-.61-1.31-1.41-1.59m-4.87-2.4h-2.15v.3h1.04v5.13h-1.04v.3h3.2v-.3h-1.04v-5.43Zm-.58-2.22c.4,0,.73-.34.74-.74,0-.41-.33-.74-.74-.75-.4,0-.74.34-.74.75s.33.74.74.74m-3.34,2.09c-1.05,0-1.51.87-1.68,1.4v-1.27h-2.16v.3h1.05v5.13h-1.05v.3h3.28v-.3h-1.11v-2.94c0-1.43.85-2.25,1.33-2.25.27,0,.39.13.4.36,0,.42-.16.41-.17.76,0,.26.24.41.62.42.35,0,.7-.17.7-.77,0-.55-.37-1.14-1.2-1.14m-5.68,1.8c0-1.24-.77-1.8-1.92-1.8-1.37,0-1.95.93-2.16,1.43v-5.01h-2.2v.27h1.07v8.86h-1.07v.3h3.14v-.3h-.93v-2.9c0-1.36.92-2.37,1.99-2.37.64,0,.99.44,1,1.1v4.17h-1.06v.3h3.2v-.3h-1.05v-3.76Zm-7.38,4.02v-2.81l-.2-.05c-.4,1.37-.76,2.78-3.02,2.78-1.76,0-2.95-.91-2.96-4.57,0-1.96.26-4.65,2.96-4.66,1.93,0,2.47,1.29,2.78,2.62l.25.04v-2.66l-.24-.05c-.16.16-.25.27-.57.27-.48,0-1.02-.51-2.11-.51-2.67,0-4.67,2.32-4.67,4.95,0,1.54.66,2.72,1.5,3.57.92.91,1.99,1.29,3.08,1.29,1.19,0,1.9-.47,2.37-.47.3,0,.41.12.52.25h.29Z"/>
  </g>
</svg>