<svg xmlns="http://www.w3.org/2000/svg" width="649" height="78" viewBox="0 0 649 78">
    <g fill="none" fill-rule="evenodd">
        <path fill="#FFF" d="M-100-240h1440v6419H-100z"/>
        <path fill="#5AB7B2" d="M645.5 24.4C644.3 9.3 634.7.8 611.2.8c-21 0-31.1 8.9-31.1 21.4 0 12.8 7.9 18.1 30.4 20.3 22.5 2.2 27.6 5.4 27.6 12.6 0 10.8-9.7 13.7-24 13.7-18.5 0-25.3-4.2-27.1-16.3h-9.4c0 17.4 13.6 24.9 36.5 24.9 22.6 0 34.3-8.6 34.3-22.9 0-14-9.2-17.9-31.3-20.8-21.9-2.9-26.8-4.4-26.8-11.9 0-10 10-12.4 20.8-12.4 15 0 22.2 3.3 24.9 15h9.5zm-87.8 27.7c-3.6 11-11.4 16.7-28.6 16.7-18.3 0-29-12.2-29-27.2h69.7C569.8 8.8 547.7.8 529.1.8c-26.9 0-39.3 18.2-39.3 38.3 0 17.6 9.7 38.3 39.3 38.3 23.9 0 34.7-12.5 38.9-25.3h-10.3zm-57.6-18.3c2.4-17.6 16.5-24.4 29.7-24.4 13.8 0 26.8 6.7 29.7 24.4h-59.4zm-29.5 15.6c-2.6 11.3-11.1 19.4-26.3 19.4-19.5 0-30.3-11.8-30.3-29.7 0-16.7 9.7-29.7 30.4-29.7 12.8 0 22.5 4.9 25.7 17.2h10.3C478.7 16.2 469.1.8 444.4.8c-27.4 0-40.7 16.7-40.7 38.3 0 22.6 14.6 38.3 40.7 38.3 26.3 0 34.6-18.6 36.5-28.1h-10.3v.1zm-91.3 25.8h10.3V3h-10.3v72.2zm-56.9 0h10.3V38.4c0-20.6 13.5-27.4 24.6-27.4 3.2 0 6.2.3 9.4.8V1.3c-1.5-.3-3.2-.6-6.1-.6-17.1 0-23.9 10.1-27.6 18.8L332.7 3h-10.3v72.2zm-30.7 0H302V3h-10.3v39.2c0 16.4-9.2 26.7-29.3 26.7-13.1 0-21.8-5-21.8-19.3V3h-10.3v44.7c0 17.2 7.2 29.7 31.3 29.7 16 0 26.8-8.8 29.9-16.4l.2 14.2zM152 25.2c.7-11.5 8.5-15.8 24.7-15.8 16.9 0 23.9 3.8 23.9 14.2 0 7.1-2.8 8.3-25.3 9.6-15.8.8-36 3.1-36 22.6 0 16.3 15.7 21.7 28.1 21.7 23.6 0 30.6-9.7 33.8-14.4.4 5.7 1 12.8 11.4 12.8 3.3 0 6.5-.7 8.6-1.1v-6.9c-1.8.1-3.6.3-5.4.3-4 0-5.7-2.1-5.7-8.1v-38C210.1 8.2 201.2.7 177 .7c-24.7 0-32.9 9.3-34.4 24.4h9.4v.1zm48.6 22.1c0 14.9-16.3 22.4-30.1 22.4-11.1 0-20.8-3.3-20.8-14.6 0-8.6 6.9-12.2 18.9-13.3 20.6-1.9 27.5-2.5 32.1-5.4v10.9h-.1zm-87.4 27.9h10.3V25.9C123.5 11 114.1.8 93.8.8 79.4.8 68.9 9.4 65.5 16.6 63.3 9.4 55.8.7 39.6.7 23.1.7 15.3 8.7 11 16.3L10.7 3H.4v72.2h10.3V34.5c0-16.7 10.8-25.1 25.6-25.1 14 0 20.6 7.8 20.6 16.9v48.9h10.3V32.5c0-14 8.8-23.2 24.6-23.2 14.9 0 21.5 6.8 21.5 20v45.9h-.1z"/>
        <path d="M0 0h649v78H0z"/>
    </g>
</svg>
