<?xml version="1.0" encoding="UTF-8" standalone="no"?>
<!-- Generator: Adobe Illustrator 27.1.1, SVG Export Plug-In . SVG Version: 6.00 Build 0)  -->

<svg
   version="1.1"
   id="Layer_1"
   x="0px"
   y="0px"
   viewBox="0 0 1147.8165 288.63"
   xml:space="preserve"
   sodipodi:docname="RR-HorizontalLockup-Black-No-Text.svg"
   inkscape:version="1.2.2 (732a01da63, 2022-12-09)"
   width="1147.8165"
   height="288.63"
   xmlns:inkscape="http://www.inkscape.org/namespaces/inkscape"
   xmlns:sodipodi="http://sodipodi.sourceforge.net/DTD/sodipodi-0.dtd"
   xmlns="http://www.w3.org/2000/svg"
   xmlns:svg="http://www.w3.org/2000/svg"><defs
   id="defs187" /><sodipodi:namedview
   id="namedview185"
   pagecolor="#ffffff"
   bordercolor="#000000"
   borderopacity="0.25"
   inkscape:showpageshadow="2"
   inkscape:pageopacity="0.0"
   inkscape:pagecheckerboard="0"
   inkscape:deskcolor="#d1d1d1"
   showgrid="false"
   inkscape:zoom="1.0083333"
   inkscape:cx="583.1405"
   inkscape:cy="156.69421"
   inkscape:window-width="1920"
   inkscape:window-height="1017"
   inkscape:window-x="-8"
   inkscape:window-y="-8"
   inkscape:window-maximized="1"
   inkscape:current-layer="Layer_1" />


<g
   id="g164"
   transform="translate(-16.44,-163.37)">
	<g
   id="g162">
		<path
   d="m 1163.51,337.93 c -0.58,-1.29 -1.35,-2.06 -2.36,-2.33 -1.06,-0.28 -2.36,-0.18 -3.84,0.31 -2.31,0.63 -4.37,1.55 -6.13,2.74 -1.78,1.2 -3.1,2.23 -3.93,3.06 -0.23,0.23 -0.32,0.38 -0.35,0.47 l -0.13,0.41 0.4,-0.21 c 0.04,-0.02 0.1,-0.05 0.18,-0.09 1.02,-0.52 2.14,-0.59 3.43,-0.23 1.22,0.35 2.37,1.14 3.41,2.34 1.01,1.18 1.83,2.82 2.44,4.87 0.61,2.04 0.8,4.46 0.59,7.19 -0.32,3.34 -1.2,7.24 -2.59,11.61 -1.4,4.37 -3.01,8.65 -4.76,12.74 -1.75,4.09 -3.48,7.88 -5.15,11.26 -1.66,3.37 -2.87,5.81 -3.62,7.31 l -0.7,1.41 -0.35,-1.53 c -0.95,-4.11 -2.21,-8.58 -3.76,-13.28 -1.55,-4.7 -3.31,-9.39 -5.21,-13.92 -1.91,-4.58 -3.96,-9.05 -6.08,-13.29 -2.12,-4.24 -4.22,-8 -6.23,-11.19 -2.84,-4.74 -5.47,-8.07 -7.82,-9.9 -2.29,-1.77 -4.88,-2.24 -7.93,-1.43 -1.35,0.31 -3.01,1.02 -4.93,2.11 -1.98,1.13 -3.82,2.17 -5.57,3.15 -0.18,0.16 -0.28,0.29 -0.33,0.37 l -0.26,0.43 0.62,-0.24 c 2.6,-1.24 4.98,-1.26 7.07,-0.04 2.03,1.18 4.03,3.43 6.14,6.86 2.56,3.84 5.21,8.5 7.89,13.84 2.68,5.38 5.25,11.11 7.65,17.06 2.39,5.95 4.56,12.1 6.44,18.27 1.87,6.17 3.31,12.06 4.27,17.49 l 0.04,0.22 -0.12,0.19 c -1.8,2.85 -3.42,5.36 -4.82,7.47 -1.41,2.11 -2.71,3.98 -3.87,5.56 -1.17,1.59 -2.31,3.04 -3.4,4.29 -1.1,1.26 -2.32,2.4 -3.62,3.37 -2.52,1.97 -4.85,3.14 -6.91,3.48 -2.11,0.34 -3.79,0.12 -4.97,-0.64 -1.23,-0.8 -1.85,-2.03 -1.78,-3.55 0.06,-1.42 0.87,-2.86 2.44,-4.28 l 0.93,-0.85 -1.12,0.57 c -2.42,1.23 -4.62,2.68 -6.54,4.29 -1.97,1.66 -3.55,3.4 -4.71,5.17 -1.11,1.72 -1.7,3.38 -1.75,4.93 -0.05,1.48 0.64,2.78 2.12,3.95 1.02,0.81 2.37,1.21 4.03,1.21 1.38,0 2.96,-0.28 4.76,-0.83 4.06,-1.25 8.73,-4.49 13.9,-9.65 2.2,-2.2 4.72,-5.28 7.49,-9.16 2.75,-3.87 5.66,-8.32 8.65,-13.21 2.98,-4.91 5.97,-10.19 8.89,-15.71 2.92,-5.51 5.72,-11.17 8.34,-16.83 2.59,-5.6 4.99,-11.19 7.13,-16.59 2.13,-5.36 3.85,-10.39 5.12,-14.95 1.16,-4.13 1.83,-7.55 1.99,-10.16 0.11,-2.58 -0.12,-4.57 -0.72,-5.91 z"
   id="path120" />
		<path
   d="m 504.9,220.43 c 0.05,-0.01 0.11,-0.03 0.22,-0.06 5.2,-2.67 9.88,-0.42 13.87,6.68 1.92,3.19 3.98,7.28 6.13,12.17 2.14,4.87 4.14,10.05 5.96,15.38 1.82,5.37 3.42,10.67 4.75,15.77 1.34,5.14 2.13,9.71 2.34,13.6 0.06,1.46 0.42,1.99 0.71,2.17 0.13,0.08 0.28,0.13 0.48,0.13 0.26,0 0.57,-0.08 0.94,-0.23 3.94,-2.18 7.85,-5.71 11.63,-10.49 3.82,-4.83 7.37,-10.28 10.54,-16.22 3.18,-5.94 5.98,-12.13 8.31,-18.39 2.33,-6.27 4,-12.07 4.95,-17.24 0.82,-4.21 0.56,-7.25 -0.78,-9.03 -1.29,-1.73 -3.11,-2.19 -5.54,-1.41 -0.98,0.22 -1.96,0.55 -3,1.02 -1.05,0.47 -2.06,1 -2.99,1.57 -1.01,0.62 -1.87,1.17 -2.63,1.67 -0.78,0.52 -1.39,0.94 -1.82,1.27 l -0.04,0.05 c -0.07,0.11 -0.12,0.23 -0.15,0.34 l -0.06,0.26 0.26,-0.06 c 0.18,-0.04 0.41,-0.13 0.67,-0.26 1.63,-0.76 3.34,-0.27 5.07,1.46 1.62,1.63 2.78,3.85 3.44,6.61 0.66,2.84 0.61,6.35 -0.15,10.43 -0.75,4.03 -2.03,8.31 -3.81,12.71 -1.77,4.41 -3.97,8.86 -6.54,13.24 -2.56,4.38 -5.39,8.46 -8.4,12.12 l -0.84,1.02 -0.16,-1.31 c -0.42,-3.48 -1.17,-7.4 -2.24,-11.65 -1.07,-4.29 -2.34,-8.7 -3.76,-13.13 -1.44,-4.47 -3.05,-8.97 -4.81,-13.37 -1.75,-4.41 -3.61,-8.58 -5.52,-12.4 -2.4,-4.8 -5,-8.04 -7.73,-9.64 -2.71,-1.59 -5.47,-1.81 -8.42,-0.69 -1.27,0.42 -3.05,1.13 -5.28,2.08 -2.19,0.94 -4.03,1.99 -5.5,3.14 -0.14,0.11 -0.38,0.33 -0.4,0.53 l -0.02,0.25 0.24,-0.08 z"
   id="path122" />
		<path
   d="m 480.34,222.55 c 1.18,0.86 1.78,2.4 1.79,4.59 0.32,4.17 0.4,8.34 0.24,12.4 -0.16,4.09 -0.35,8.18 -0.57,12.13 -0.21,3.93 -0.4,8.03 -0.56,12.19 -0.16,4.11 -0.13,8.27 0.08,12.39 0.21,3.65 1.2,6.12 2.97,7.35 1.08,0.75 2.3,1.12 3.67,1.12 0.9,0 1.87,-0.16 2.92,-0.48 2.12,-0.85 4.25,-1.78 6.33,-2.78 2.11,-1 4.32,-2.16 6.57,-3.45 0.24,-0.19 0.17,-0.4 0.13,-0.52 l -0.04,-0.13 -0.13,0.01 c -0.09,0.01 -0.2,0.03 -0.34,0.08 -2.73,1.33 -5.09,1.65 -7.01,0.95 -1.98,-0.72 -3.11,-2.56 -3.34,-5.46 -0.22,-4.13 -0.24,-8.72 -0.08,-13.63 0.16,-4.91 0.35,-9.86 0.57,-14.7 0.21,-4.83 0.37,-9.76 0.48,-14.68 0.11,-4.84 0.11,-9.39 0,-13.56 -0.13,-0.83 -0.42,-1.87 -1.14,-2.1 -0.69,-0.23 -1.57,-0.2 -2.65,0.09 -1.75,0.62 -4.19,1.65 -7.44,3.17 -3.13,1.46 -6.1,2.99 -8.81,4.55 l -1.39,0.8 1.52,-0.49 c 2.82,-0.88 4.86,-0.83 6.23,0.16 z"
   id="path124" />
		<path
   d="m 464.34,318.76 c -11.97,-16.79 -32.67,-17.71 -50.66,-10.89 -19.82,7.52 -34.59,25.75 -36.03,47.2 -0.07,1.06 -0.11,2.13 -0.13,3.2 0,0.29 -0.01,0.57 -0.01,0.86 0,6.77 0.94,13.14 2.78,18.93 3.78,11.92 10.73,22.37 22.32,27.87 13.67,6.5 30.01,3.79 42.97,-3.17 18.7,-10.04 28.42,-29.26 28.42,-50.06 0,-11.65 -2.73,-24.08 -9.51,-33.72 -0.04,-0.07 -0.1,-0.14 -0.15,-0.22 z m -6.76,60.29 c -1.51,5.77 -4.74,13.77 -11.58,19.13 -4.85,3.79 -11.07,5.86 -17.59,5.86 -0.21,0 -0.42,0 -0.62,-0.01 -6.05,-0.12 -11.82,-2.08 -16.26,-5.52 -3.83,-2.97 -7.25,-6.8 -10.17,-11.38 -2.9,-4.57 -5.22,-9.78 -6.89,-15.48 -1.67,-5.69 -2.46,-11.63 -2.35,-17.67 0.21,-11.9 2.72,-22.71 7.08,-30.42 5.63,-9.98 14.15,-15.03 25.32,-15.03 0.03,0 0.06,0 0.08,0 5.93,0.01 11.65,1.86 16.11,5.2 3.88,2.92 7.31,6.7 10.17,11.23 2.86,4.53 5.12,9.71 6.73,15.4 3.33,11.76 3.32,25.86 -0.03,38.69 z"
   id="path126" />
		<path
   d="m 940.99,278.38 c 3.03,2.98 6.52,5.15 10.38,6.45 2.94,0.99 5.97,1.49 9.04,1.49 0.97,0 1.95,-0.05 2.93,-0.15 2.82,-0.31 5.56,-0.9 8.15,-1.74 2.59,-0.85 4.96,-1.86 7.05,-3.01 2.09,-1.15 4.01,-2.4 5.7,-3.72 1.67,-1.31 2.99,-2.59 3.92,-3.84 0.44,-0.69 0.52,-1.05 0.53,-1.21 l 0.05,-0.49 -0.33,0.35 c -0.02,0.01 -0.04,0.02 -0.07,0.04 -0.21,0.11 -0.7,0.37 -1.58,1.25 -2.82,2.6 -5.79,4.67 -8.83,6.13 -3.1,1.49 -6.62,1.91 -10.46,1.25 -3.25,-0.43 -6.39,-1.5 -9.33,-3.2 -2.94,-1.69 -5.59,-4.06 -7.88,-7.05 -2.27,-2.97 -4.14,-6.57 -5.54,-10.68 -1.4,-4.11 -2.23,-8.86 -2.44,-14.12 0,-2.51 0.16,-5.08 0.49,-7.64 0.32,-2.58 0.81,-5.07 1.46,-7.39 0.65,-2.32 1.44,-4.46 2.37,-6.36 0.94,-1.93 2.09,-3.52 3.42,-4.75 1.23,-1.12 3.06,-2.08 5.43,-2.85 2.38,-0.78 4.88,-0.89 7.45,-0.33 2.38,0.32 4.57,1.1 6.51,2.32 1.93,1.22 3.49,2.61 4.65,4.15 1.17,1.56 1.91,3.24 2.2,4.99 0.28,1.76 0.02,3.35 -0.76,4.73 l -0.42,0.73 0.67,-0.51 c 1.69,-1.3 3.54,-2.86 5.51,-4.64 2.12,-1.91 3.55,-3.91 4.26,-5.95 0.58,-1.85 0.52,-3.35 -0.19,-4.48 -0.75,-1.19 -1.89,-2.18 -3.39,-2.93 -1.54,-0.77 -3.3,-1.35 -5.23,-1.72 -1.91,-0.36 -3.75,-0.61 -5.47,-0.72 -5.85,-0.21 -11.65,0.86 -17.16,3.17 -5.52,2.32 -10.35,5.62 -14.34,9.82 -2.82,2.93 -5.02,6.67 -6.54,11.11 -1.52,4.47 -2.3,9.4 -2.3,14.67 0,5.9 0.93,11.15 2.77,15.6 1.81,4.47 4.28,8.24 7.32,11.23 z"
   id="path128" />
		<path
   d="m 1045.86,280.26 c 2.05,2.15 4.1,3.56 6.08,4.16 0.83,0.26 1.71,0.38 2.62,0.38 1.23,0 2.52,-0.23 3.86,-0.7 1.49,-0.53 3.31,-1.31 5.4,-2.31 2.11,-1 3.94,-1.94 5.43,-2.79 0.1,-0.06 0.16,-0.12 0.18,-0.16 l 0.1,-0.14 -0.11,-0.07 c -0.01,-0.02 -0.02,-0.06 -0.04,-0.09 -0.01,-0.1 -0.07,-0.14 -0.1,-0.16 -0.15,-0.08 -0.28,0.04 -0.34,0.09 -1.46,0.8 -2.88,1.18 -4.32,1.18 -0.06,0 -0.11,0 -0.17,0 -1.41,-0.06 -2.75,-0.37 -3.98,-0.93 -1.23,-0.56 -2.41,-1.31 -3.51,-2.25 -1.1,-0.93 -2.05,-1.96 -2.84,-3.09 -2.62,-2.82 -5.07,-5.79 -7.28,-8.8 -2.11,-2.88 -4.22,-5.83 -6.27,-8.77 -1.98,-2.84 -3.93,-5.65 -5.78,-8.35 -1.86,-2.7 -3.82,-5.31 -5.83,-7.74 l -0.41,-0.5 0.55,-0.34 c 5.41,-3.39 10.26,-6.63 14.42,-9.61 4.11,-2.95 6.98,-5.45 8.56,-7.44 0.89,-1.19 1.42,-2.35 1.56,-3.41 0.15,-1.06 0.05,-2.02 -0.28,-2.85 -0.33,-0.79 -0.81,-1.36 -1.45,-1.72 -0.63,-0.36 -1.33,-0.44 -2.17,-0.26 -1.43,0.41 -3.41,1.28 -5.87,2.59 -2.49,1.32 -4.71,2.64 -6.61,3.9 -0.17,0.1 -0.23,0.17 -0.25,0.2 l -0.28,0.4 0.47,-0.14 c 0.01,0 0.03,-0.01 0.06,-0.01 0.15,-0.02 0.42,-0.07 0.87,-0.29 0.89,-0.38 1.75,-0.48 2.63,-0.29 0.86,0.19 1.6,0.62 2.22,1.29 0.61,0.67 1,1.43 1.18,2.27 0.2,0.93 -0.08,1.85 -0.85,2.74 -0.77,0.99 -2.27,2.28 -4.59,3.94 -2.25,1.61 -4.88,3.34 -7.82,5.16 -2.98,1.84 -6.15,3.71 -9.42,5.55 -3.26,1.85 -6.4,3.55 -9.33,5.07 l -0.84,0.44 0.34,-20.29 c 0.11,-6.86 0.19,-13.48 0.24,-19.66 0.05,-6.39 0.08,-12.55 0.08,-18.3 0,-5.68 -0.05,-10.8 -0.16,-15.27 -0.17,-0.9 -0.62,-1.55 -1.29,-1.89 -0.72,-0.36 -1.57,-0.35 -2.6,0.02 -1.91,0.64 -4.44,1.68 -7.5,3.11 -3.08,1.43 -6.04,2.96 -8.78,4.55 -0.28,0.12 -0.39,0.2 -0.32,0.52 v 0 l 0.01,0.03 c 0,0.02 0.01,0.03 0.01,0.05 l 0.33,0.76 v 0 l 0.31,-0.13 -0.22,-0.52 c 2.57,-1.09 4.56,-1.25 6.1,-0.48 1.59,0.8 2.4,2.56 2.4,5.25 0.11,7.13 0.11,14.81 0,22.8 -0.11,8.22 -0.25,16.32 -0.4,24.09 l -0.48,23.6 c -0.16,7.78 -0.19,14.96 -0.08,21.33 0,3.85 0.94,6.4 2.79,7.57 1.91,1.2 4.06,1.39 6.59,0.58 2.07,-0.72 3.89,-1.42 5.4,-2.07 1.47,-0.63 3.33,-1.64 5.53,-3.01 0.39,-0.2 0.53,-0.37 0.35,-0.84 -0.03,-0.09 -0.09,-0.15 -0.17,-0.18 -0.15,-0.05 -0.37,0.01 -0.7,0.21 -1.66,1.18 -3.41,1.3 -5.21,0.34 -1.8,-0.96 -2.71,-2.91 -2.71,-5.8 v -23.94 l 3.99,-2.17 c 1.3,-0.71 2.34,-1.31 3.18,-1.83 l 0.41,-0.25 0.31,0.36 c 2.46,2.78 4.85,5.73 7.1,8.79 2.17,2.95 4.35,5.97 6.67,9.24 2.11,2.99 4.3,6.04 6.5,9.07 2.08,2.87 4.29,5.64 6.53,8.21 z"
   id="path130" />
		<path
   d="m 858.2,275.56 c 2.2,2.98 4.82,5.44 7.79,7.32 2.97,1.87 6.15,3.03 9.48,3.45 1.12,0.11 2.25,0.17 3.38,0.17 14.98,0 30.75,-9.43 36.98,-22.57 2.42,-5.09 3.64,-10.87 3.64,-17.18 0,-4.63 -0.64,-8.98 -1.9,-12.91 -1.26,-3.93 -2.99,-7.44 -5.14,-10.44 -2.14,-2.98 -4.71,-5.41 -7.63,-7.23 -2.91,-1.82 -6.13,-2.95 -9.56,-3.37 -4.04,-0.51 -9.12,0.28 -15.53,2.37 -7.7,2.5 -14.43,6.62 -19.47,11.91 -2.83,3.04 -5.11,6.65 -6.79,10.74 -1.68,4.08 -2.53,8.88 -2.53,14.24 0,4.63 0.67,9 1.98,12.99 1.31,3.97 3.1,7.51 5.3,10.51 z m 4.6,-28.83 c 0,-2.56 0.25,-5.16 0.73,-7.72 2.04,-10.68 8.75,-22.75 21.03,-22.75 0.49,0 0.98,0.02 1.48,0.06 3.32,0.33 6.32,1.62 8.91,3.83 2.55,2.17 4.78,4.95 6.63,8.26 1.84,3.3 3.26,7.05 4.23,11.14 0.97,4.09 1.46,8.3 1.46,12.5 0.11,2.55 0.05,5.15 -0.16,7.74 -0.22,2.6 -0.68,5.1 -1.38,7.42 -1.37,4.52 -4.33,10.58 -10.64,13.75 -6.41,3.22 -13.71,2.48 -19.08,-1.91 -2.71,-2.22 -5.08,-5.08 -7.04,-8.51 -1.94,-3.39 -3.5,-7.22 -4.63,-11.37 -1.12,-4.14 -1.65,-8.33 -1.54,-12.44 z"
   id="path132" />
		<path
   d="m 1030,393.63 -0.09,-0.01 c -0.01,0 -0.02,0 -0.03,0 -0.16,0 -0.62,0.12 -1.54,1.21 -0.87,0.98 -1.92,1.97 -3.12,2.95 -1.19,0.98 -2.51,1.91 -3.92,2.77 -1.41,0.87 -2.93,1.62 -4.51,2.21 -1.6,0.61 -3.2,0.97 -4.74,1.08 -3.4,0.32 -6.7,-0.1 -9.79,-1.24 -3.1,-1.14 -5.94,-2.8 -8.44,-4.92 -2.5,-2.11 -4.67,-4.61 -6.45,-7.43 -1.79,-2.82 -3.09,-5.9 -3.85,-9.16 l -0.09,-0.4 0.35,-0.21 c 5.38,-3.27 9.96,-6.13 13.63,-8.5 3.61,-2.34 6.82,-4.52 9.53,-6.48 2.69,-1.95 5.12,-3.81 7.2,-5.52 2.08,-1.71 4.26,-3.6 6.48,-5.6 1.14,-1.03 2.39,-2.39 3.71,-4.03 1.25,-1.54 1.88,-3.18 1.88,-4.86 0,-1.17 -0.38,-2.33 -1.11,-3.46 -0.76,-1.16 -1.82,-2.25 -3.15,-3.23 -1.34,-0.98 -2.93,-1.79 -4.74,-2.41 -1.8,-0.62 -3.82,-0.93 -5.99,-0.93 -5.89,-0.21 -11.64,0.8 -17.05,3.01 -5.41,2.2 -10.29,5.45 -14.5,9.67 -3.03,3.03 -5.3,6.82 -6.77,11.26 -1.47,4.47 -2.22,9.4 -2.22,14.67 0,5.9 0.93,11.14 2.77,15.6 1.83,4.46 4.33,8.17 7.41,11.04 3.08,2.88 6.61,5.03 10.48,6.38 3.36,1.18 6.84,1.78 10.37,1.78 0.54,0 1.08,-0.01 1.61,-0.04 2.61,-0.11 5.26,-0.61 7.88,-1.5 2.62,-0.89 5.11,-1.96 7.38,-3.18 2.26,-1.21 4.28,-2.52 6.02,-3.88 1.73,-1.36 3.07,-2.63 4,-3.76 1.44,-1.64 1.69,-2.53 1.45,-2.82 z m -26.24,-28.19 c -2.18,1.65 -4.95,3.55 -8.23,5.64 -3.31,2.11 -7.34,4.52 -11.99,7.16 l -0.65,0.37 -0.18,-0.73 c -0.54,-2.25 -0.89,-5.12 -1.06,-8.54 -0.16,-3.39 -0.05,-6.87 0.32,-10.36 0.38,-3.5 1.15,-6.79 2.28,-9.78 1.16,-3.04 2.77,-5.26 4.79,-6.61 4.28,-2.86 8.86,-3.75 13.61,-2.65 2.73,0.66 5.04,1.63 6.86,2.9 1.83,1.28 3.19,2.72 4.03,4.29 0.85,1.59 1.2,3.29 1.03,5.06 -0.17,1.75 -0.88,3.49 -2.11,5.17 -0.88,1.11 -1.98,2.29 -3.36,3.61 -1.33,1.3 -3.13,2.8 -5.34,4.47 z"
   id="path134" />
		<path
   d="m 642.94,271.16 c -0.2,-0.15 -0.75,0.08 -1.68,1.17 -0.87,0.98 -1.92,1.98 -3.12,2.95 -1.2,0.98 -2.52,1.91 -3.92,2.77 -1.41,0.87 -2.93,1.61 -4.51,2.21 -1.6,0.61 -3.19,0.97 -4.74,1.08 -3.39,0.32 -6.69,-0.1 -9.79,-1.24 -3.1,-1.14 -5.94,-2.79 -8.44,-4.92 -2.5,-2.11 -4.67,-4.61 -6.45,-7.43 -1.79,-2.82 -3.09,-5.9 -3.85,-9.16 l -0.09,-0.4 0.35,-0.21 c 5.39,-3.28 9.98,-6.14 13.63,-8.5 3.61,-2.34 6.82,-4.52 9.53,-6.48 2.7,-1.96 5.12,-3.82 7.2,-5.52 2.07,-1.7 4.26,-3.59 6.48,-5.6 1.14,-1.04 2.39,-2.39 3.71,-4.03 1.25,-1.55 1.88,-3.18 1.88,-4.86 0,-1.17 -0.38,-2.33 -1.12,-3.46 -0.75,-1.16 -1.81,-2.25 -3.15,-3.23 -1.34,-0.98 -2.93,-1.79 -4.75,-2.41 -1.8,-0.62 -3.82,-0.93 -5.99,-0.93 -5.91,-0.19 -11.65,0.8 -17.05,3.01 -5.41,2.2 -10.29,5.45 -14.51,9.67 -3.03,3.03 -5.3,6.82 -6.77,11.26 -1.47,4.47 -2.22,9.41 -2.22,14.67 0,5.89 0.93,11.14 2.77,15.6 1.83,4.45 4.32,8.17 7.41,11.04 3.08,2.88 6.61,5.03 10.48,6.38 3.35,1.18 6.86,1.77 10.46,1.77 0.51,0 1.01,-0.01 1.52,-0.04 2.61,-0.11 5.26,-0.61 7.88,-1.5 2.63,-0.9 5.11,-1.97 7.38,-3.18 2.26,-1.21 4.29,-2.52 6.02,-3.88 1.73,-1.36 3.07,-2.63 4,-3.76 1.44,-1.64 1.69,-2.53 1.45,-2.82 z m -26.25,-28.22 c -2.17,1.64 -4.94,3.54 -8.22,5.64 -3.27,2.09 -7.3,4.5 -11.99,7.16 l -0.65,0.37 -0.17,-0.73 c -0.54,-2.27 -0.9,-5.14 -1.06,-8.54 -0.16,-3.41 -0.05,-6.9 0.32,-10.36 0.38,-3.5 1.14,-6.79 2.28,-9.78 1.16,-3.04 2.77,-5.26 4.79,-6.61 3.1,-2.07 6.35,-3.11 9.71,-3.11 1.28,0 2.58,0.15 3.9,0.46 2.73,0.66 5.04,1.63 6.86,2.9 1.84,1.28 3.19,2.72 4.03,4.29 0.85,1.59 1.2,3.29 1.03,5.06 -0.17,1.75 -0.88,3.5 -2.11,5.17 -0.87,1.09 -2,2.31 -3.36,3.61 -1.34,1.29 -3.14,2.79 -5.36,4.47 z"
   id="path136" />
		<path
   d="m 739.84,356.35 c -4.95,-4.11 -12.29,-7.75 -21.81,-10.81 -7.62,-2.36 -13.64,-5.09 -17.9,-8.11 -5.07,-3.59 -10.91,-9.06 -10.33,-15.87 0.28,-3.34 2.26,-6.38 4.9,-8.45 3.33,-2.6 7.58,-3.76 11.72,-4.24 6.68,-0.77 14.19,0.58 20.01,3.99 5.58,3.27 9.94,8.98 10.55,15.43 3.23,-1.01 6.1,-3.12 8.02,-5.9 1.32,-1.9 2.2,-4.2 2.01,-6.5 -0.32,-3.73 -3.35,-6.68 -6.58,-8.58 -8.1,-4.77 -18.13,-5.07 -27.4,-3.48 -7.31,1.25 -14.56,3.65 -20.54,8.04 -6.57,4.81 -12.11,12.45 -11.32,20.97 0.74,7.99 8.45,14.72 14.94,18.54 7.01,4.12 14.88,6.49 22.44,9.48 7.15,2.83 14.67,6.4 20.09,11.99 6.57,6.78 6.18,16.14 -1.89,21.74 -7.12,4.94 -16.99,6.22 -25.44,6.22 -6.37,0 -11.5,-0.88 -15.25,-2.62 -3.76,-1.74 -6.62,-3.91 -8.48,-6.44 -1.87,-2.54 -2.94,-5.23 -3.16,-7.99 -0.22,-2.75 0.06,-5.11 0.84,-7.01 0.45,-1.12 0.23,-1.38 0.19,-1.42 -0.06,-0.04 -0.13,-0.07 -0.24,-0.07 -0.18,0 -0.5,0.07 -1.05,0.41 -4.69,2.82 -7.85,6.39 -9.4,10.64 -1.54,4.21 -1.31,8.21 0.68,11.9 2.01,3.71 6.04,6.7 11.98,8.89 3.71,1.36 8.32,2.04 13.78,2.04 3.39,0 7.12,-0.26 11.16,-0.79 5.48,-0.74 10.83,-2.4 15.88,-4.92 5.05,-2.53 9.43,-5.65 13.02,-9.28 3.57,-3.62 6.2,-7.69 7.82,-12.08 1.61,-4.35 1.71,-8.74 0.31,-13.04 -1.41,-4.33 -4.62,-8.59 -9.55,-12.68 z"
   id="path138" />
		<path
   d="m 680.92,278.1 0.04,-0.02 0.02,-0.04 c 0.05,-0.08 0.08,-0.15 0.1,-0.23 l 0.03,-0.19 0.54,-0.12 -0.07,-0.33 -1.02,0.22 0.17,0.17 v 0.13 c -0.04,0.02 -0.07,0.03 -0.11,0.06 -2.62,1.37 -4.95,1.63 -6.93,0.75 -2.04,-0.89 -3.07,-2.77 -3.07,-5.58 -0.21,-7.26 -0.11,-14.32 0.32,-20.98 0.42,-6.63 0.64,-13.61 0.64,-20.76 v -0.25 l 0.19,-0.17 c 5.24,-4.69 9.18,-7.48 12.07,-8.54 2.98,-1.09 5.39,-0.81 7.15,0.83 0.76,0.88 1.21,1.99 1.39,3.41 0.18,1.44 -0.27,2.82 -1.33,4.12 -0.09,0.11 -0.34,0.42 -0.17,0.64 0.14,0.16 0.29,0.22 0.64,0.08 l 0.03,-0.02 c 0.89,-0.61 1.91,-1.37 2.88,-2.14 1.04,-0.83 2.06,-1.74 3.01,-2.69 0.95,-0.95 1.82,-1.95 2.6,-2.99 0.77,-1.03 1.37,-2.02 1.78,-2.95 0.48,-1.16 0.58,-2.27 0.29,-3.39 -0.29,-1.12 -0.84,-2.09 -1.63,-2.88 -0.75,-0.66 -1.65,-1.09 -2.66,-1.28 -1.06,-0.2 -2.08,-0.25 -3.05,-0.16 -0.99,0.11 -2.22,0.4 -3.65,0.86 -1.45,0.46 -3.14,1.26 -5.03,2.36 -1.88,1.1 -3.69,2.4 -5.38,3.87 -1.47,1.37 -2.83,2.76 -4.04,4.12 -1.23,1.39 -2.59,2.94 -4.09,4.65 l -0.99,1.13 v -1.5 c 0,-1.78 -0.16,-3.66 -0.47,-5.61 -0.31,-1.91 -0.83,-3.58 -1.55,-4.97 -0.69,-1.34 -1.46,-2.26 -2.27,-2.75 -0.82,-0.48 -1.56,-0.72 -2.18,-0.72 0,0 0,0 0,0 -0.94,-0.11 -1.99,0.04 -3.21,0.45 -2.31,0.84 -4.47,1.77 -6.42,2.78 -1.93,0.99 -4.06,2.15 -6.34,3.45 -0.19,0.15 -0.18,0.32 -0.15,0.44 l -0.02,0.06 0.08,0.08 c 0.03,0.03 0.05,0.08 0.19,0.05 l 0.18,-0.01 -0.01,-0.03 c 0.04,-0.01 0.08,-0.03 0.13,-0.04 2.47,-1.53 4.81,-1.91 6.79,-1.1 2.03,0.84 3.12,2.79 3.24,5.8 0.21,4.18 0.27,8.41 0.16,12.56 -0.1,4.11 -0.24,8.29 -0.4,12.45 l -0.48,12.44 c -0.16,4.16 -0.13,8.35 0.08,12.47 0.21,3.66 1.13,6.14 2.75,7.36 1.04,0.78 2.25,1.17 3.67,1.17 0.82,0 1.71,-0.13 2.68,-0.39 2.18,-0.83 4.32,-1.79 6.37,-2.84 2.09,-1.07 4.29,-2.18 6.51,-3.29 z"
   id="path140" />
		<path
   d="m 833.57,400.04 c -0.13,-0.08 -0.28,-0.01 -0.41,0.06 -2.7,1.35 -5.04,1.69 -6.95,0.99 -1.99,-0.73 -3.11,-2.62 -3.34,-5.62 -0.22,-4.15 -0.24,-8.71 -0.08,-13.55 0.16,-5 0.35,-9.94 0.56,-14.7 0.22,-5.1 0.4,-10.07 0.56,-14.77 0.16,-4.8 0.13,-9.35 -0.08,-13.54 -0.13,-0.84 -0.42,-1.89 -1.14,-2.12 -0.68,-0.23 -1.61,-0.15 -2.77,0.24 -2.03,0.54 -4.63,1.56 -7.73,3.03 -3.15,1.49 -6.13,3.05 -8.87,4.63 l -0.17,0.1 0.42,0.57 0.08,-0.19 c 0.04,-0.01 0.09,-0.02 0.13,-0.04 2.55,-0.92 4.46,-1.05 5.84,-0.39 1.42,0.68 2.25,2.26 2.49,4.7 0.22,4.2 0.24,8.37 0.08,12.37 -0.15,3.89 -0.37,7.92 -0.64,11.98 -0.26,3.88 -0.51,7.88 -0.72,11.87 -0.21,3.92 -0.21,7.9 0,11.82 l 0.02,0.41 -0.38,0.15 c -4.42,1.73 -8.31,2.74 -11.56,3.01 -3.28,0.27 -6.11,0.05 -8.41,-0.66 -2.32,-0.72 -4.26,-1.82 -5.76,-3.26 -1.48,-1.43 -2.65,-2.99 -3.48,-4.65 -0.82,-1.64 -1.43,-3.3 -1.81,-4.94 -0.38,-1.64 -0.58,-3.09 -0.58,-4.31 -0.22,-3.4 -0.22,-6.63 0,-9.58 l 0.64,-8.83 c 0.22,-3 0.38,-6.04 0.48,-9.05 0.11,-3.07 0.05,-6.57 -0.16,-10.39 -0.21,-3.65 -1.21,-6.13 -2.97,-7.35 -1.79,-1.24 -3.89,-1.45 -6.42,-0.64 -2.2,0.84 -4.3,1.8 -6.24,2.84 -1.98,1.07 -4.04,2.2 -6.18,3.37 -0.22,0.13 -0.32,0.25 -0.32,0.39 l -0.02,0.01 0.06,0.24 h 0.1 l 0.32,0.16 -0.07,-0.2 c 0.04,-0.01 0.08,-0.02 0.12,-0.04 2.73,-1.21 5.11,-1.48 6.95,-0.79 1.93,0.72 3.02,2.56 3.25,5.46 0.22,3.55 0.24,6.99 0.08,10.19 -0.16,3.2 -0.35,6.36 -0.56,9.4 l -0.64,8.99 c -0.21,2.9 -0.27,5.93 -0.16,9.01 0.1,5.55 1.13,10.06 3.05,13.39 1.91,3.31 4.28,5.64 7.05,6.92 2.81,1.3 5.64,1.96 8.43,1.96 2.4,0 4.71,-0.27 6.85,-0.79 2.17,-0.54 4.38,-1.28 6.58,-2.22 1.79,-0.84 3.56,-1.72 5.25,-2.63 1.72,-0.92 3.84,-1.92 6.3,-2.99 l 0.71,-0.31 0.08,0.77 c 0.3,2.9 1.33,4.85 3.09,5.82 1.8,1 3.7,1.14 5.8,0.44 2.44,-0.74 4.69,-1.6 6.68,-2.54 1.99,-0.94 4.19,-2.12 6.53,-3.51 0.21,-0.12 0.13,-0.38 0.09,-0.5 0.05,-0.09 0.01,-0.15 -0.05,-0.19 z"
   id="path142" />
		<path
   d="m 891.24,343 c 0.48,-1.16 0.58,-2.27 0.29,-3.39 -0.29,-1.12 -0.84,-2.09 -1.63,-2.88 -0.75,-0.66 -1.65,-1.09 -2.67,-1.28 -1.05,-0.2 -2.08,-0.26 -3.05,-0.16 -0.99,0.11 -2.22,0.4 -3.65,0.86 -1.45,0.46 -3.14,1.26 -5.03,2.36 -1.88,1.1 -3.69,2.4 -5.38,3.87 -1.47,1.37 -2.83,2.76 -4.04,4.12 -1.23,1.39 -2.59,2.94 -4.09,4.65 l -0.99,1.13 v -1.5 c 0,-1.78 -0.16,-3.66 -0.47,-5.61 -0.31,-1.91 -0.83,-3.58 -1.55,-4.97 -0.69,-1.34 -1.46,-2.26 -2.27,-2.75 -0.82,-0.48 -1.56,-0.72 -2.18,-0.72 0,0 0,0 0,0 -0.93,-0.11 -1.98,0.04 -3.22,0.45 -2.31,0.84 -4.47,1.77 -6.42,2.78 -1.93,0.99 -4.06,2.15 -6.34,3.45 -0.19,0.15 -0.18,0.32 -0.15,0.44 l -0.03,0.06 0.08,0.08 c 0.02,0.03 0.05,0.07 0.2,0.05 l 0.17,-0.01 -0.01,-0.03 c 0.04,-0.01 0.08,-0.03 0.13,-0.05 2.47,-1.53 4.81,-1.9 6.79,-1.1 2.03,0.84 3.12,2.79 3.24,5.8 0.21,4.18 0.27,8.41 0.16,12.56 -0.1,4.11 -0.24,8.29 -0.4,12.45 l -0.48,12.44 c -0.16,4.16 -0.13,8.35 0.08,12.47 0.21,3.66 1.13,6.14 2.75,7.36 1.03,0.78 2.25,1.17 3.67,1.17 0.82,0 1.71,-0.13 2.68,-0.39 2.18,-0.83 4.32,-1.79 6.37,-2.84 2.12,-1.09 4.32,-2.2 6.54,-3.31 l 0.04,-0.02 0.02,-0.04 c 0.05,-0.08 0.08,-0.15 0.1,-0.23 l 0.06,-0.32 -0.3,0.14 c -0.06,0.03 -0.14,0.07 -0.22,0.11 -2.62,1.37 -4.95,1.63 -6.93,0.75 -2.04,-0.89 -3.07,-2.77 -3.07,-5.58 -0.21,-7.26 -0.11,-14.32 0.32,-20.98 0.42,-6.63 0.64,-13.61 0.64,-20.76 v -0.25 l 0.19,-0.17 c 5.24,-4.69 9.18,-7.48 12.07,-8.54 2.97,-1.09 5.39,-0.81 7.15,0.83 0.76,0.88 1.21,1.99 1.39,3.41 0.18,1.44 -0.27,2.82 -1.33,4.12 -0.09,0.11 -0.34,0.42 -0.17,0.64 0.14,0.16 0.29,0.23 0.65,0.08 l 0.03,-0.02 c 0.89,-0.61 1.91,-1.37 2.88,-2.14 1.04,-0.83 2.06,-1.74 3.01,-2.69 0.95,-0.95 1.82,-1.95 2.6,-2.99 0.76,-0.99 1.36,-1.98 1.77,-2.91 z"
   id="path144" />
		<path
   d="m 631.37,400.06 c -0.05,0.01 -0.11,0.03 -0.21,0.06 -2.78,1.22 -5.18,1.5 -7.13,0.8 -2.06,-0.73 -3.11,-2.58 -3.11,-5.51 0,-3.4 0.24,-20.93 0.47,-37.88 0.2,-14.74 0.39,-28.66 0.42,-32.73 0.06,-9 -0.04,-13.46 -0.25,-19.52 -0.17,-0.91 -0.62,-1.56 -1.29,-1.89 -0.69,-0.35 -1.53,-0.3 -2.55,0.16 -1.83,0.65 -4.37,1.7 -7.55,3.14 -3.13,1.4 -6.14,2.88 -8.97,4.4 -0.23,0.14 -0.15,0.43 -0.12,0.55 l 0.05,0.18 0.17,-0.06 c 3.17,-1.13 5.31,-1.19 6.79,-0.17 1.27,0.87 1.92,2.54 1.92,4.95 l 0.05,1.53 c 0.17,5.74 0.21,7.1 0.11,14.49 -0.03,2.46 -0.16,9.07 -0.33,17.43 -0.37,18.72 -0.87,44.35 -0.8,48.79 0,3.65 0.94,6.14 2.8,7.41 1.17,0.8 2.43,1.2 3.82,1.2 0.87,0 1.79,-0.16 2.76,-0.47 2.18,-0.83 4.36,-1.76 6.5,-2.78 2.08,-0.99 4.24,-2.12 6.42,-3.36 l 0.05,-0.05 c 0.17,-0.24 0.23,-0.4 0.25,-0.5 l 0.06,-0.28 -0.27,0.09 c -0.01,0.01 -0.03,0.01 -0.06,0.02 z"
   id="path146" />
		<path
   d="m 601.19,400.11 c -2.79,1.23 -5.14,1.53 -6.98,0.89 -1.94,-0.66 -3.04,-2.53 -3.27,-5.55 -0.32,-3.44 -0.29,-7.69 0.08,-12.61 0.37,-4.92 0.64,-9.99 0.8,-15.07 0.16,-5.09 -0.03,-10.04 -0.56,-14.69 -0.53,-4.61 -1.63,-8.34 -3.29,-11.09 -1.65,-2.72 -3.58,-4.56 -5.76,-5.47 -2.16,-0.91 -4.26,-1.35 -6.09,-1.24 -3.68,0 -8.27,1.02 -13.65,3.02 -1.79,0.63 -3.87,1.59 -6.19,2.86 -2.33,1.27 -4.63,2.67 -6.86,4.15 -2.22,1.48 -4.25,3.06 -6.03,4.68 -1.76,1.61 -3.02,3.14 -3.73,4.58 -0.22,0.52 -0.19,0.77 -0.18,0.86 l 0.02,0.17 0.17,-0.04 c 0.05,0.01 0.14,0.03 0.31,0.03 h 0.12 c 1.11,-0.05 2.5,-0.41 4.15,-1.08 1.68,-0.69 3.33,-1.53 4.89,-2.52 1.95,-1.23 2.4,-1.9 2.5,-2.2 1,-3.43 3.03,-6 6.04,-7.61 2.99,-1.61 6.29,-2.09 9.69,-1.42 3.32,0.55 5.88,1.86 7.62,3.88 1.7,1.98 2.93,4.21 3.65,6.63 0.71,2.39 1.09,4.74 1.15,6.97 0.05,2.2 0.02,3.88 -0.08,4.97 l -0.03,0.31 -0.28,0.14 c -1.77,0.88 -4.19,2.15 -7.21,3.77 -3.1,1.65 -6.28,3.41 -9.46,5.21 -3.45,1.96 -6.34,3.62 -8.82,5.06 -2.72,1.58 -4.45,2.6 -5.28,3.12 -4.22,2.75 -7.61,5.47 -10.08,8.09 -2.41,2.56 -3.68,5.3 -3.78,8.15 0,2.1 0.53,3.96 1.59,5.52 1.06,1.57 2.59,2.89 4.53,3.91 1.97,1.03 4.34,1.77 7.05,2.19 1.57,0.24 3.24,0.36 4.98,0.36 1.31,0 2.65,-0.07 4.04,-0.2 5.36,-0.53 9.75,-1.69 13.03,-3.47 3.35,-1.8 6.11,-3.47 8.21,-4.94 l 0.73,-0.51 0.15,0.87 c 0.5,2.8 1.54,4.64 3.08,5.46 1.59,0.85 3.58,1.01 5.9,0.5 2.32,-0.85 4.6,-1.78 6.77,-2.77 2.17,-0.98 4.34,-2.06 6.45,-3.22 l 0.04,-0.03 c 0.16,-0.17 0.26,-0.32 0.32,-0.45 l 0.09,-0.31 -0.33,0.1 c -0.08,-0.01 -0.13,0.01 -0.21,0.04 z m -22.78,-2.63 0.01,0.23 -0.15,0.17 c -1.65,1.87 -3.66,3.35 -5.97,4.39 -2.28,1.04 -4.5,1.67 -6.59,1.89 -0.84,0.07 -1.68,0.1 -2.49,0.1 -3.1,0 -5.82,-0.51 -8.08,-1.51 -2.86,-1.26 -5.04,-2.92 -6.49,-4.92 -1.45,-2.01 -2.22,-4.23 -2.27,-6.58 -0.06,-2.37 0.71,-4.55 2.3,-6.47 0.9,-1.12 2.61,-2.54 5.25,-4.36 2.58,-1.77 5.42,-3.61 8.46,-5.48 3.07,-1.88 6.16,-3.67 9.18,-5.31 3.08,-1.67 5.48,-2.91 7.33,-3.79 l 0.86,-0.41 -0.06,0.95 c -0.11,1.93 -0.24,4.2 -0.4,6.82 -0.16,2.62 -0.32,5.35 -0.48,8.19 -0.17,3.06 -0.3,5.81 -0.4,8.42 -0.11,2.75 -0.11,5.33 -0.01,7.67 z"
   id="path148" />
		<path
   d="m 956.64,405.91 c -2.8,-0.75 -5.64,-1.36 -8.45,-1.83 -2.82,-0.47 -5.32,-0.82 -7.43,-1.04 -2.04,-0.21 -3.73,-0.37 -5.04,-0.48 -1.75,-0.22 -3.81,-0.49 -6.22,-0.81 -2.45,-0.33 -5.2,-0.87 -8.16,-1.62 -3.37,-1.01 -5.62,-2.23 -6.88,-3.72 -1.29,-1.52 -1.77,-3.12 -1.41,-4.74 0.35,-1.58 1.46,-3.04 3.28,-4.35 1.76,-1.27 3.99,-2.19 6.61,-2.74 4.92,-0.22 9.73,-1.27 14.3,-3.11 4.57,-1.84 8.75,-4.47 12.43,-7.84 3.02,-2.7 5.27,-6.11 6.67,-10.13 1.4,-4 1.69,-8.09 0.86,-12.14 -0.21,-1.05 -0.47,-2 -0.78,-2.81 -0.3,-0.8 -0.71,-1.63 -1.23,-2.47 l -0.45,-0.72 0.83,-0.14 c 1.22,-0.21 2.6,-0.7 4.09,-1.48 1.53,-0.79 3.05,-1.7 4.52,-2.69 1.48,-1 2.86,-2.07 4.12,-3.17 l 3.14,-2.74 0.66,-0.6 -0.87,0.33 c -0.03,0.01 -0.06,0.02 -0.12,0.05 -3.4,2.14 -7.17,3.39 -11.22,3.72 -3.95,0.32 -7.68,0.59 -11.09,0.8 l -0.19,0.01 -0.16,-0.11 c -2.6,-1.77 -5.64,-3.03 -9.03,-3.77 -3.36,-0.73 -6.95,-0.67 -10.59,0.16 -5.81,1.16 -10.73,2.87 -14.62,5.08 -3.89,2.21 -7.41,5.04 -10.46,8.4 -2.39,2.6 -4.02,5.52 -4.85,8.67 -0.83,3.16 -0.83,6.38 0,9.59 1.04,4.15 3.28,7.76 6.65,10.72 3.39,2.97 7.32,4.9 11.7,5.73 l 1.84,0.35 -1.72,0.73 c -2.01,0.85 -3.84,1.71 -5.41,2.55 -1.57,0.83 -3.22,1.85 -4.92,3.02 -2.06,1.44 -3.54,2.99 -4.4,4.61 -0.85,1.6 -1.15,3.18 -0.91,4.7 0.25,1.52 1.1,2.95 2.55,4.24 1.48,1.33 3.64,2.37 6.43,3.09 l 1.46,0.38 -1.35,0.67 c -1.4,0.7 -2.86,1.45 -4.48,2.32 -1.5,0.8 -2.84,1.53 -4.01,2.17 -5.88,3.25 -9.94,6.72 -12.07,10.31 -2.11,3.56 -2.87,6.99 -2.26,10.2 0.61,3.24 2.39,6.27 5.29,9.01 2.93,2.77 6.36,4.98 10.18,6.55 3.83,1.57 7.29,2.51 10.27,2.77 3.09,0.27 4.83,0.4 5.33,0.4 0.26,0 0.52,0.01 0.79,0.01 4.31,0 8.46,-0.64 12.36,-1.91 9,-2.75 16.54,-6.34 22.4,-10.67 5.84,-4.32 9.94,-8.73 12.19,-13.13 2.21,-4.32 2.53,-8.4 0.95,-12.13 -1.59,-3.71 -5.33,-6.49 -11.12,-8.25 z m 2.57,26.07 -0.04,0.1 c -1.07,2.46 -2.95,4.49 -5.61,6.05 -5.29,3.13 -11.1,4.99 -17.25,5.53 -6.08,0.54 -10.8,0.62 -13.84,0.24 -3.18,-0.39 -5.02,-0.68 -5.8,-0.9 -4.51,-1.08 -8.74,-2.77 -12.57,-5.03 -3.9,-2.31 -6.47,-5.13 -7.63,-8.41 -1.19,-3.33 -0.46,-6.87 2.16,-10.55 2.56,-3.6 7.8,-7.13 15.57,-10.47 l 0.17,-0.07 0.18,0.04 c 2.84,0.63 5.63,1.14 8.3,1.52 2.74,0.38 5.6,0.73 8.5,1.04 l 3.99,0.32 c 1.37,0.1 3.49,0.32 6.28,0.64 2.86,0.33 5.25,0.76 7.3,1.3 3.1,0.88 5.62,2.37 7.5,4.42 1.88,2.04 3.09,4.35 3.59,6.86 0.49,2.47 0.22,4.95 -0.8,7.37 z m -39.58,-56.17 c -2.34,-1.63 -4.38,-3.62 -6.07,-5.91 -1.69,-2.29 -2.94,-4.78 -3.7,-7.4 -0.55,-2.19 -0.83,-4.49 -0.83,-6.83 0,-2.35 0.42,-4.61 1.24,-6.71 0.83,-2.1 2.12,-3.98 3.83,-5.58 1.73,-1.61 4.06,-2.77 6.92,-3.43 1.47,-0.32 2.93,-0.48 4.36,-0.48 1.55,0 3.08,0.19 4.57,0.56 2.85,0.72 5.4,1.91 7.59,3.55 2.18,1.64 4.09,3.63 5.66,5.91 1.59,2.29 2.72,4.79 3.37,7.4 0.44,1.86 0.74,3.95 0.9,6.2 0.17,2.3 -0.03,4.57 -0.57,6.76 -0.56,2.23 -1.69,4.26 -3.35,6.03 -1.68,1.79 -4.1,3.03 -7.2,3.7 -3.05,0.66 -6.1,0.6 -8.94,-0.17 -2.81,-0.74 -5.43,-1.96 -7.78,-3.6 z"
   id="path150" />
		<path
   d="m 1085.96,336.74 c -0.78,-0.68 -1.66,-1.1 -2.68,-1.3 -1.07,-0.2 -2.09,-0.26 -3.05,-0.16 -0.99,0.11 -2.22,0.4 -3.66,0.86 -1.45,0.47 -3.14,1.26 -5.03,2.36 -1.88,1.1 -3.69,2.4 -5.38,3.88 -1.47,1.36 -2.82,2.75 -4.04,4.12 -1.23,1.39 -2.59,2.94 -4.09,4.65 l -0.99,1.13 v -1.5 c 0,-1.78 -0.16,-3.67 -0.47,-5.61 -0.31,-1.91 -0.83,-3.58 -1.55,-4.97 -0.69,-1.34 -1.46,-2.26 -2.28,-2.75 -0.82,-0.48 -1.55,-0.72 -2.18,-0.72 v 0 c -0.95,-0.1 -2,0.05 -3.22,0.45 -2.31,0.84 -4.47,1.78 -6.42,2.78 -1.93,0.99 -4.06,2.15 -6.34,3.45 -0.2,0.16 -0.18,0.34 -0.14,0.46 v 0.18 h 0.17 c 0.01,0 0.02,0 0.04,0 h 0.21 l -0.01,-0.04 c 0.04,-0.01 0.08,-0.02 0.13,-0.04 2.48,-1.53 4.81,-1.91 6.78,-1.1 2.03,0.84 3.12,2.79 3.24,5.8 0.21,4.16 0.27,8.39 0.16,12.56 -0.11,4.1 -0.24,8.29 -0.4,12.45 l -0.48,12.44 c -0.16,4.16 -0.13,8.35 0.08,12.47 0.2,3.66 1.13,6.14 2.75,7.36 1.04,0.78 2.25,1.17 3.67,1.17 0.82,0 1.71,-0.13 2.68,-0.39 2.2,-0.84 4.34,-1.8 6.38,-2.84 1.88,-0.97 4.02,-2.05 6.54,-3.31 l 0.06,-0.05 c 0.05,-0.07 0.09,-0.15 0.1,-0.23 l 0.07,-0.32 -0.3,0.13 c -0.06,0.03 -0.14,0.07 -0.23,0.12 -2.62,1.36 -4.96,1.62 -6.93,0.75 -2.04,-0.9 -3.07,-2.77 -3.07,-5.58 -0.21,-7.25 -0.1,-14.31 0.32,-20.98 0.42,-6.65 0.64,-13.63 0.64,-20.76 v -0.25 l 0.19,-0.17 c 5.24,-4.7 9.19,-7.49 12.07,-8.54 2.98,-1.09 5.39,-0.81 7.15,0.83 0.76,0.88 1.21,2 1.39,3.41 0.18,1.43 -0.27,2.82 -1.33,4.12 -0.09,0.12 -0.35,0.43 -0.17,0.64 0.13,0.15 0.29,0.23 0.64,0.08 l 0.03,-0.02 c 0.89,-0.61 1.91,-1.37 2.88,-2.15 1.03,-0.82 2.04,-1.73 3.01,-2.69 0.94,-0.94 1.82,-1.95 2.59,-2.99 0.77,-1.03 1.37,-2.02 1.78,-2.95 0.49,-1.17 0.58,-2.28 0.29,-3.39 -0.28,-1.1 -0.82,-2.06 -1.6,-2.85 z"
   id="path152" />
		<path
   d="m 531.7,336.74 c -0.79,-0.68 -1.67,-1.1 -2.69,-1.3 -1.05,-0.2 -2.07,-0.26 -3.05,-0.16 -0.98,0.11 -2.21,0.4 -3.65,0.86 -1.45,0.46 -3.14,1.26 -5.03,2.36 -1.89,1.11 -3.7,2.41 -5.38,3.87 -1.46,1.36 -2.82,2.74 -4.04,4.12 -1.23,1.39 -2.59,2.94 -4.09,4.65 l -0.99,1.13 v -1.5 c 0,-1.78 -0.16,-3.66 -0.47,-5.61 -0.31,-1.91 -0.83,-3.58 -1.55,-4.97 -0.69,-1.34 -1.46,-2.26 -2.27,-2.75 -0.82,-0.48 -1.56,-0.72 -2.18,-0.72 0,0 0,0 0,0 -0.93,-0.1 -1.98,0.04 -3.22,0.45 -2.33,0.85 -4.48,1.78 -6.42,2.78 -1.93,0.99 -4.06,2.15 -6.34,3.45 -0.19,0.16 -0.18,0.32 -0.15,0.44 l 0.01,0.19 h 0.17 c 0.01,0 0.02,0 0.04,0 h 0.21 l -0.01,-0.04 c 0.04,-0.01 0.08,-0.03 0.13,-0.04 2.47,-1.53 4.81,-1.9 6.78,-1.1 2.03,0.84 3.12,2.79 3.24,5.8 0.21,4.18 0.27,8.41 0.16,12.56 -0.11,4.21 -0.24,8.4 -0.4,12.45 l -0.48,12.44 c -0.16,4.13 -0.13,8.33 0.08,12.47 0.21,3.66 1.13,6.14 2.75,7.36 1.04,0.78 2.25,1.17 3.67,1.17 0.82,0 1.71,-0.13 2.68,-0.39 2.2,-0.84 4.34,-1.8 6.37,-2.84 2.01,-1.02 4.15,-2.11 6.54,-3.31 l 0.06,-0.05 c 0.05,-0.07 0.09,-0.15 0.1,-0.23 l 0.07,-0.34 -0.31,0.15 c -0.06,0.03 -0.14,0.07 -0.22,0.11 -2.63,1.37 -4.97,1.62 -6.94,0.75 -2.04,-0.89 -3.07,-2.77 -3.07,-5.58 -0.22,-7.26 -0.11,-14.32 0.32,-20.98 0.42,-6.66 0.64,-13.65 0.64,-20.76 v -0.25 l 0.19,-0.17 c 5.23,-4.69 9.18,-7.48 12.07,-8.54 2.98,-1.1 5.39,-0.81 7.15,0.83 0.76,0.88 1.21,1.99 1.39,3.41 0.18,1.44 -0.27,2.83 -1.33,4.12 -0.09,0.12 -0.34,0.43 -0.16,0.64 0.13,0.16 0.29,0.22 0.64,0.08 l 0.03,-0.02 c 0.91,-0.63 1.93,-1.39 2.87,-2.15 1.05,-0.83 2.06,-1.74 3,-2.69 0.95,-0.95 1.82,-1.95 2.6,-2.99 0.77,-1.02 1.37,-2.01 1.78,-2.95 0.49,-1.17 0.58,-2.28 0.29,-3.39 -0.27,-1.07 -0.81,-2.03 -1.59,-2.82 z"
   id="path154" />
		<path
   d="m 471.85,276.55 c -0.03,0.02 -0.06,0.04 -0.11,0.06 -2.04,1.25 -4.11,1.82 -6.18,1.68 -2.05,-0.11 -4.02,-0.64 -5.85,-1.59 -1.8,-0.93 -3.54,-2.11 -5.17,-3.53 -1.62,-1.4 -2.99,-2.78 -4.08,-4.08 -5.12,-5.97 -9.96,-11.89 -14.38,-17.59 -4.38,-5.64 -8.51,-11.02 -12.29,-15.98 l -0.49,-0.65 0.78,-0.23 c 7.08,-2.12 13.05,-4.85 17.74,-8.11 4.68,-3.26 8.33,-6.78 10.85,-10.45 2.5,-3.65 3.95,-7.42 4.32,-11.22 0.36,-3.79 -0.25,-7.33 -1.8,-10.53 -1.56,-3.22 -4.08,-6.03 -7.51,-8.37 -3.44,-2.35 -7.79,-3.91 -12.93,-4.65 -4.14,-0.63 -9.35,-0.96 -15.5,-0.96 -6.15,0 -12.88,0.83 -20.02,2.48 -3.81,0.87 -7.73,2.07 -11.72,3.54 v 9.75 c 0.01,0.18 0.04,0.34 0.04,0.54 0.24,10.5 0.22,20.86 -0.04,30.94 v 0.14 0 c -0.09,3.52 -0.21,7.01 -0.36,10.45 -0.59,13.3 -0.78,26.6 -0.56,39.54 0,1.83 0.32,3.3 0.96,4.38 0.64,1.08 1.45,1.87 2.42,2.35 0.98,0.49 2.21,0.74 3.56,0.74 1.23,0 2.55,-0.21 3.88,-0.61 2.31,-0.63 4.39,-1.4 6.18,-2.29 1.78,-0.89 3.66,-1.88 5.59,-2.95 0.28,-0.14 0.36,-0.24 0.38,-0.28 l 0.05,-0.14 -0.09,-0.09 c -0.14,-0.14 -0.3,-0.2 -0.7,-0.06 -2.46,1.12 -4.64,1.25 -6.5,0.37 -1.92,-0.9 -2.9,-2.72 -2.9,-5.41 0,-6.18 0.08,-13.05 0.24,-20.4 l 0.48,-22.4 c 0.15,-7.21 0.26,-14.72 0.32,-22.31 0.05,-7.27 -0.03,-14.04 -0.24,-20.13 l -0.02,-0.49 0.48,-0.09 c 2.27,-0.43 4.58,-0.75 6.88,-0.97 2.31,-0.21 4.47,-0.32 6.4,-0.32 5.72,0 10.63,0.82 14.59,2.45 3.95,1.62 7.2,3.72 9.66,6.23 2.46,2.51 4.23,5.37 5.27,8.48 1.04,3.11 1.45,6.21 1.23,9.21 -0.22,3.01 -1.05,5.82 -2.48,8.35 -1.44,2.54 -3.4,4.5 -5.84,5.84 -2.52,1.42 -4.81,2.25 -6.8,2.47 -1.96,0.22 -3.84,0.22 -5.59,0 -1.82,-0.23 -3.42,-0.44 -4.9,-0.64 -1.46,-0.2 -3.03,-0.05 -4.65,0.46 -1.28,0.43 -2.76,1.04 -4.42,1.82 -1.66,0.78 -2.97,1.54 -3.89,2.25 -0.36,0.22 -0.46,0.37 -0.39,0.59 0.12,0.36 0.38,0.65 0.8,0.9 2.92,1.73 5.91,4.39 8.89,7.91 2.93,3.46 5.94,7.36 8.94,11.6 2.95,4.17 5.98,8.47 8.99,12.77 2.98,4.25 5.99,8.07 8.94,11.34 1.37,1.58 2.67,2.85 3.87,3.79 1.17,0.92 2.38,1.59 3.6,2 1.24,0.41 2.56,0.56 3.96,0.45 1.45,-0.11 3.19,-0.47 5.16,-1.1 2.01,-0.53 4.28,-1.41 6.75,-2.62 2.46,-1.2 4.5,-2.5 6.07,-3.86 0.08,-0.08 0.32,-0.34 0.36,-0.56 l 0.06,-0.33 z"
   id="path156" />
		<path
   d="m 848.83,276.55 c -0.03,0.02 -0.07,0.04 -0.11,0.06 -2.03,1.24 -4.15,1.82 -6.18,1.68 -2.05,-0.11 -4.02,-0.64 -5.85,-1.59 -1.78,-0.92 -3.52,-2.11 -5.17,-3.53 -1.62,-1.4 -2.99,-2.78 -4.08,-4.08 -5.13,-5.99 -9.97,-11.91 -14.38,-17.59 -4.38,-5.64 -8.51,-11.02 -12.29,-15.98 l -0.49,-0.65 0.78,-0.23 c 7.08,-2.12 13.05,-4.85 17.74,-8.11 4.69,-3.27 8.34,-6.78 10.85,-10.45 2.5,-3.65 3.96,-7.42 4.32,-11.22 0.36,-3.78 -0.24,-7.32 -1.79,-10.53 -1.55,-3.22 -4.08,-6.03 -7.52,-8.37 -3.44,-2.35 -7.79,-3.91 -12.93,-4.65 -4.14,-0.63 -9.35,-0.96 -15.5,-0.96 -6.14,0 -12.88,0.83 -20.02,2.48 -3.74,0.86 -7.59,2.03 -11.52,3.46 v 25.24 h -0.02 c 0,9.1 -0.17,18.03 -0.55,26.65 -0.59,13.27 -0.78,26.58 -0.56,39.54 0,1.82 0.32,3.3 0.97,4.38 0.64,1.08 1.45,1.87 2.42,2.35 0.98,0.49 2.21,0.74 3.56,0.74 1.23,0 2.55,-0.2 3.88,-0.61 2.31,-0.63 4.39,-1.4 6.18,-2.29 1.8,-0.9 3.68,-1.89 5.59,-2.95 0.28,-0.14 0.36,-0.24 0.38,-0.27 l 0.06,-0.13 -0.1,-0.09 c -0.15,-0.15 -0.3,-0.21 -0.7,-0.07 -2.46,1.12 -4.64,1.24 -6.5,0.37 -1.92,-0.9 -2.9,-2.72 -2.9,-5.41 0,-6.18 0.08,-13.05 0.24,-20.4 l 0.48,-22.4 c 0.16,-7.49 0.27,-14.99 0.32,-22.31 0.05,-7.31 -0.03,-14.08 -0.24,-20.13 l -0.02,-0.49 0.48,-0.09 c 2.28,-0.43 4.59,-0.76 6.88,-0.97 2.31,-0.21 4.46,-0.32 6.39,-0.32 5.72,0 10.63,0.82 14.59,2.45 3.95,1.62 7.2,3.72 9.66,6.23 2.46,2.52 4.23,5.37 5.27,8.48 1.04,3.11 1.45,6.21 1.23,9.21 -0.22,3.01 -1.06,5.82 -2.48,8.35 -1.44,2.54 -3.41,4.51 -5.85,5.84 -2.52,1.42 -4.8,2.25 -6.79,2.47 -1.97,0.22 -3.85,0.22 -5.59,0 -1.83,-0.23 -3.44,-0.44 -4.9,-0.64 -1.46,-0.21 -3.02,-0.05 -4.66,0.46 -1.26,0.42 -2.75,1.03 -4.42,1.82 -1.66,0.78 -2.97,1.54 -3.89,2.25 -0.36,0.22 -0.46,0.37 -0.39,0.59 0.12,0.35 0.38,0.65 0.8,0.9 2.92,1.73 5.91,4.39 8.89,7.91 2.94,3.47 5.95,7.38 8.94,11.6 2.73,3.86 5.68,8.03 8.99,12.77 2.96,4.24 5.98,8.06 8.95,11.34 1.37,1.58 2.67,2.86 3.86,3.79 1.18,0.92 2.39,1.59 3.6,2 1.24,0.41 2.57,0.56 3.96,0.45 1.45,-0.11 3.19,-0.47 5.16,-1.1 2.02,-0.53 4.29,-1.42 6.75,-2.62 2.46,-1.2 4.5,-2.5 6.07,-3.86 0.09,-0.1 0.32,-0.35 0.36,-0.56 l 0.06,-0.33 z"
   id="path158" />
		<ellipse
   cx="486.04001"
   cy="197.71001"
   rx="8.4700003"
   ry="6.6900001"
   id="ellipse160" />
	</g>
</g>
<g
   id="g182"
   transform="translate(-16.44,-163.37)">
	<g
   id="g176">
		<path
   d="m 45.95,280.18 c 27.23,12.35 58.23,16.19 87.83,11.61 40.53,-6.49 78.78,-24.99 118.73,-30.49 26.4,-3.45 54.25,-1.98 77.91,11.8 -11.44,-10.48 -26.34,-16.64 -41.7,-19.79 1.42,-20.29 2.78,-51.42 -13.77,-67.34 -5.16,-4.88 -12.11,-7.46 -20.11,-7.46 -6.94,0 -14.34,1.96 -20.9,5.53 -4.45,2.26 -8.54,4.99 -12.5,7.63 -4.28,2.86 -8.7,5.81 -13.58,8.17 -3.56,1.77 -7.32,3.15 -11.18,4.11 -1.91,0.48 -3.85,0.85 -5.8,1.11 -1.96,0.26 -5.6,0.26 -7.55,0.51 2.18,1.05 5.5,1.14 6.8,1.15 2.68,0.03 5.36,-0.15 8.03,-0.51 5.63,-0.77 11.16,-2.32 16.36,-4.61 11.72,-5.16 22.62,-13.73 35.96,-14.14 0.35,-0.01 0.71,-0.02 1.06,-0.02 4.39,0 8.34,0.87 11.48,2.55 11.21,6.57 12.94,22.39 13.2,35.47 0.03,8.32 -0.44,16.86 -1.37,25.8 -0.74,-0.07 -1.48,-0.15 -2.22,-0.21 -34.86,-2.75 -69.15,8.35 -102.03,18.24 -13,3.88 -25.95,7.65 -38.92,10.12 -19.43,3.67 -39.61,4.04 -59.22,0.94 -0.05,-0.01 -0.11,-0.02 -0.16,-0.03 -2.54,-11.39 -4.44,-22.33 -5.66,-32.97 -1.6,-12.85 -3.4,-27.42 -2.1,-40.74 1.09,-9.46 2.81,-20.04 9.43,-25.88 3.81,-3.25 9.17,-4.9 15.94,-4.9 0.39,0 0.78,0 1.23,0.02 13.68,0.74 25.68,8.04 35.86,14.84 10.67,7.12 20.53,15.27 31.63,21.76 10.96,6.41 23.68,10.64 36.5,8.43 1.13,-0.19 2.65,-0.36 3.6,-0.98 -0.65,-0.06 -1.34,0.02 -2,0.02 -9.99,0 -21.15,-3.63 -31.44,-10.22 -7.66,-4.93 -14.53,-10.96 -21.17,-16.79 -3.71,-3.26 -7.56,-6.63 -11.5,-9.78 -11.95,-9.69 -22.36,-15.46 -32.73,-18.16 -4.26,-1.06 -8.44,-1.6 -12.43,-1.6 -17.11,0 -29.53,9.72 -34.09,26.71 -5.75,19.39 -3.65,39.83 -1.01,59.15 1.08,9.07 2.79,18.47 5.01,28.11 -8.04,-1.98 -15.96,-4.54 -23.62,-7.69 -6.18,-2.62 -12.17,-5.83 -17.31,-10.41 7.26,9.83 18.6,15.89 29.51,20.94 z"
   id="path166" />
		<path
   d="m 272.61,284.52 c -34.86,-2.75 -69.15,8.35 -102.03,18.24 -13,3.88 -25.95,7.65 -38.92,10.12 -19.43,3.67 -39.61,4.04 -59.22,0.94 -13.22,-2.04 -26.29,-5.6 -38.69,-10.7 -6.18,-2.62 -12.17,-5.83 -17.31,-10.41 7.26,9.82 18.6,15.88 29.51,20.93 27.23,12.34 58.23,16.19 87.83,11.61 40.53,-6.49 78.78,-24.99 118.73,-30.49 4.99,-0.65 10.04,-1.13 15.1,-1.38 -1.47,6.43 -3.12,13.11 -4.99,20.15 -1.65,5.98 -3.57,12 -5.72,17.87 -9.2,25.22 -22.15,50.67 -41.26,69.89 -2.26,2.28 -5.12,4.86 -8.49,5.08 -3.34,0.21 -5.67,-2.45 -6.84,-5.3 -3.85,-9.43 -1.01,-20.17 -5.52,-29.42 -0.13,-0.27 -0.27,-0.53 -0.41,-0.8 -1.43,-2.62 -3.46,-4.92 -5.92,-6.61 -2.68,-1.85 -5.86,-2.92 -9.13,-2.86 -2.3,0.04 -4.46,0.69 -6.66,1.27 8.67,0.4 14.45,7.63 16.85,15.45 2.31,7.53 1.08,15.23 2.51,22.82 1.65,8.77 8.04,16.06 16.7,15.69 1.4,-0.06 2.86,-0.32 4.37,-0.81 5.34,-1.73 9.68,-5.64 13.47,-9.79 14.73,-16.14 25.36,-37.09 34.96,-56.58 8.74,-17.75 16.05,-36.66 20.93,-56.09 16.71,0.79 33.16,4.59 47.98,13.22 -15.45,-14.13 -37.14,-20.42 -57.83,-22.04 z"
   id="path168" />
		<path
   d="m 99.66,348 c -7.49,-0.96 -14.89,-3.12 -22.87,-5.62 22.68,27.09 69.09,19.11 90.71,-6.28 -22.17,7.08 -44.64,15.26 -67.84,11.9 z"
   id="path170" />
		<path
   d="m 91.73,377.81 c 18.43,20.24 56.2,17.34 68.74,-7.81 -0.01,-0.01 -29.85,17.39 -68.74,7.81 z"
   id="path172" />
		<path
   d="m 116.17,408.65 c 0.55,1.31 1.28,2.55 2.17,3.67 3.92,4.86 10.61,6.64 16.58,5.31 1.11,-0.25 2.2,-0.6 3.25,-1.06 1.26,-0.56 2.49,-1.29 3.57,-2.16 1.84,-1.5 3.18,-3.45 4.08,-5.63 0.3,-0.73 1.34,-4.11 1.34,-4.11 0,0 -13.31,5.87 -30.99,3.98 z"
   id="path174" />
	</g>
	<path
   d="m 16.44,259.21 c 5.14,4.58 11.13,7.79 17.31,10.41 12.4,5.1 25.47,8.66 38.69,10.7 19.61,3.1 39.79,2.73 59.22,-0.94 12.97,-2.47 25.92,-6.23 38.92,-10.12 32.88,-9.89 67.17,-20.99 102.03,-18.24 20.68,1.62 42.38,7.91 57.81,22.04 -23.66,-13.78 -51.51,-15.25 -77.91,-11.8 -39.95,5.5 -78.2,24 -118.73,30.49 -29.6,4.57 -60.6,0.73 -87.83,-11.61 C 35.04,275.08 23.7,269.02 16.44,259.21 Z"
   id="path178" />
	<path
   d="m 16.44,292.67 c 5.14,4.58 11.13,7.79 17.31,10.41 12.4,5.1 25.47,8.66 38.69,10.7 19.61,3.1 39.79,2.73 59.22,-0.94 12.97,-2.47 25.92,-6.23 38.92,-10.12 32.88,-9.89 67.17,-20.99 102.03,-18.24 20.68,1.62 42.38,7.91 57.81,22.04 -23.66,-13.78 -51.51,-15.25 -77.91,-11.8 -39.95,5.5 -78.2,24 -118.73,30.49 -29.6,4.57 -60.6,0.73 -87.83,-11.61 C 35.04,308.54 23.7,302.48 16.44,292.67 Z"
   id="path180" />
</g>
</svg>
